<?xml version="1.0" encoding="utf-8"?>
<!-- Generator: Adobe Illustrator 19.2.0, SVG Export Plug-In . SVG Version: 6.00 Build 0)  -->
<svg version="1.1" id="Layer_1" xmlns="http://www.w3.org/2000/svg" xmlns:xlink="http://www.w3.org/1999/xlink" x="0px" y="0px"
	 viewBox="0 0 64 64" style="enable-background:new 0 0 64 64;" xml:space="preserve">
<style type="text/css">
	.st0{display:none;}
	.st1{display:inline;fill:#010101;}
	.st2{fill:#010101;}
</style>
<g class="st0">
	<path class="st1" d="M45.4,26.2c0.6,0,1.1,0.1,1.7,0.3c0.5,0.2,1,0.5,1.3,0.8s0.7,0.8,0.9,1.3c0.2,0.5,0.3,1,0.3,1.5v12
		c0,1.7-0.4,3.2-1.1,4.5c-0.7,1.3-1.7,2.4-3,3.3s-2.6,1.5-4.2,2c-1.6,0.4-3.2,0.7-4.9,0.7c-0.9,0-1.8,0-2.5-0.1s-1.4-0.1-2.1-0.3
		c-0.7-0.2-1.3-0.4-2-0.7c-0.7-0.3-1.4-0.7-2.2-1.2c-0.2-0.1-0.4-0.3-0.8-0.6c-0.4-0.3-0.8-0.7-1.3-1.2s-1.1-1-1.7-1.5
		c-0.6-0.6-1.2-1.1-1.9-1.8c-0.6-0.6-1.3-1.2-1.9-1.8c-0.6-0.6-1.2-1.1-1.7-1.7s-1-1-1.4-1.4c-0.4-0.4-0.7-0.7-0.9-0.9
		c-0.5-0.6-0.8-1.2-0.8-2c0-0.5,0.1-0.9,0.3-1.3c0.2-0.4,0.5-0.8,0.8-1.1c0.3-0.3,0.7-0.6,1.2-0.8c0.4-0.2,0.9-0.3,1.4-0.3
		c0.9,0,1.8,0.1,2.7,0.4c0.9,0.3,1.7,0.6,2.6,0.9V28c-0.9-0.4-1.6-0.9-2.3-1.5c-0.7-0.6-1.3-1.2-1.8-2c-0.5-0.7-0.9-1.5-1.1-2.3
		c-0.3-0.8-0.4-1.7-0.4-2.6c0-1.3,0.3-2.5,0.8-3.6c0.5-1.1,1.2-2.1,2.1-2.9c0.9-0.8,1.9-1.5,3.1-2c1.2-0.5,2.5-0.7,3.9-0.7
		c1.4,0,2.7,0.2,3.9,0.7c1.2,0.5,2.3,1.1,3.2,2c0.9,0.8,1.6,1.8,2.1,2.9c0.5,1.1,0.8,2.3,0.8,3.6c0,0.9-0.1,1.7-0.4,2.5
		c-0.3,0.8-0.6,1.6-1.1,2.4l0,0c0.4-0.3,0.8-0.6,1.3-0.7c0.5-0.2,1-0.3,1.5-0.3c0.5,0,0.9,0.1,1.4,0.2c0.4,0.1,0.8,0.3,1.2,0.6
		c0.4,0.3,0.7,0.6,0.9,0.9c0.3,0.4,0.5,0.7,0.6,1.2C44.3,26.3,44.8,26.2,45.4,26.2z M46.8,30.1c0-0.4-0.1-0.7-0.4-0.9
		c-0.3-0.3-0.6-0.4-1-0.4c-0.4,0-0.7,0.1-0.9,0.3c-0.2,0.2-0.4,0.5-0.5,0.8c-0.1,0.3-0.2,0.7-0.2,1.1c0,0.4,0,0.8,0,1.2
		c0,0.4,0,0.8,0.1,1.1c0,0.3,0.1,0.6,0.1,0.8h-2.8v-6.6c0-0.4-0.1-0.7-0.4-0.9c-0.3-0.3-0.6-0.4-1-0.4c-0.4,0-0.7,0.1-1,0.4
		c-0.3,0.3-0.4,0.6-0.4,0.9v6.6h-2.8v-6.6c0-0.1,0-0.1,0-0.2c0,0,0-0.1,0-0.2c0,0,0,0,0-0.1c0,0,0-0.1,0,0c-0.1-0.2-0.3-0.4-0.5-0.6
		c-0.2-0.2-0.5-0.2-0.8-0.2c-0.4,0-0.7,0.1-1,0.4c-0.3,0.3-0.4,0.6-0.4,0.9v6.6h-2.8V19.6c0-0.4-0.1-0.7-0.4-0.9
		c-0.3-0.3-0.6-0.4-1-0.4c-0.4,0-0.7,0.1-1,0.4c-0.3,0.3-0.4,0.6-0.4,0.9v19.9c-0.4-0.2-1-0.4-1.7-0.7c-0.7-0.3-1.4-0.6-2.2-0.9
		s-1.5-0.6-2.2-0.8c-0.7-0.2-1.3-0.3-1.8-0.3c-0.7,0-1,0.3-1,0.9v0.1c0.9,0.9,1.9,1.8,2.8,2.7c0.9,0.9,1.9,1.7,2.8,2.6
		c0.8,0.7,1.4,1.4,2,2c0.6,0.6,1.2,1.2,1.7,1.7c0.5,0.5,1.1,1,1.6,1.4c0.6,0.4,1.2,0.7,1.9,1s1.5,0.5,2.4,0.6
		c0.9,0.1,1.9,0.2,3.2,0.2c1.3,0,2.5-0.2,3.7-0.5c1.2-0.3,2.3-0.8,3.3-1.4c1-0.6,1.8-1.4,2.4-2.4c0.6-1,0.9-2.1,0.9-3.5V30.1z
		 M21.3,19.6c0,1,0.2,2,0.7,2.9c0.5,0.9,1.2,1.7,2.1,2.3c0-0.5,0-1.1-0.1-1.8c0-0.7,0-1.3,0-2c0-0.7,0.1-1.4,0.2-2
		c0.1-0.7,0.3-1.2,0.7-1.7s0.8-0.9,1.3-1.2s1.3-0.5,2.2-0.5c0.8,0,1.5,0.1,2,0.4c0.5,0.3,1,0.6,1.3,1c0.3,0.4,0.5,0.9,0.7,1.5
		c0.1,0.6,0.2,1.1,0.3,1.8c0,0.6,0,1.2,0,1.8c0,0.6,0,1.2,0,1.7c0.5-0.2,1-0.2,1.5-0.2c0.5-0.6,0.8-1.2,1-1.9
		c0.2-0.7,0.4-1.4,0.4-2.1c0-0.9-0.2-1.8-0.6-2.6c-0.4-0.8-0.9-1.5-1.5-2.1c-0.6-0.6-1.4-1.1-2.2-1.4c-0.9-0.3-1.8-0.5-2.7-0.5
		c-1,0-1.9,0.2-2.7,0.5c-0.9,0.3-1.6,0.8-2.2,1.4c-0.6,0.6-1.1,1.3-1.5,2.1S21.3,18.7,21.3,19.6z"/>
</g>
<g class="st0">
	<path class="st1" d="M50.5,16.1c0.6,0,1.2,0.1,1.8,0.4c0.6,0.2,1.1,0.6,1.5,1c0.4,0.4,0.8,0.9,1,1.5c0.2,0.6,0.4,1.2,0.4,1.8v21.7
		c0,0.6-0.1,1.3-0.4,1.8c-0.2,0.6-0.6,1.1-1,1.5c-0.4,0.4-0.9,0.8-1.5,1c-0.6,0.2-1.2,0.4-1.8,0.4h-1.5v6.2h-3.1V47h-3.1v6.2h-3.1
		V47h-3.1v6.2h-3.1V47h-3.1v6.2h-3.1V47h-3.1v6.2h-3.1V47H18v6.2h-3.1V47h-1.5c-0.6,0-1.3-0.1-1.8-0.4c-0.6-0.2-1.1-0.6-1.5-1
		c-0.4-0.4-0.8-0.9-1-1.5c-0.2-0.6-0.4-1.2-0.4-1.8V20.7c0-0.6,0.1-1.2,0.4-1.8c0.2-0.6,0.6-1.1,1-1.5c0.4-0.4,0.9-0.8,1.5-1
		c0.6-0.2,1.2-0.4,1.8-0.4h1.5V9.9H18v6.2h3.1V9.9h3.1v6.2h3.1V9.9h3.1v6.2h3.1V9.9h3.1v6.2h3.1V9.9h3.1v6.2h3.1V9.9h3.1v6.2H50.5z
		 M52,20.7c0-0.4-0.2-0.8-0.5-1.1c-0.3-0.3-0.7-0.5-1.1-0.5H13.3c-0.4,0-0.8,0.2-1.1,0.5c-0.3,0.3-0.5,0.7-0.5,1.1v21.7
		c0,0.4,0.2,0.8,0.5,1.1c0.3,0.3,0.7,0.5,1.1,0.5h37.2c0.4,0,0.8-0.2,1.1-0.5c0.3-0.3,0.5-0.7,0.5-1.1V20.7z M14.9,22.3h34.1v18.6
		H14.9V22.3z M18,37.7h27.9V25.4H18V37.7z"/>
</g>
<g>
	<g>
		<path class="st2" d="M45.9,21.7c0.4,0,0.9,0,1.4-0.1c0.5,0,1.1-0.1,1.7-0.1c0.6,0,1.2,0,1.8,0.1c0.6,0.1,1.1,0.2,1.6,0.4
			c0.5,0.2,0.8,0.5,1.1,0.9c0.3,0.4,0.4,0.9,0.4,1.6v20c0,0.4-0.1,0.8-0.2,1.1c-0.1,0.3-0.4,0.6-0.6,0.9c-0.3,0.3-0.6,0.5-0.9,0.6
			c-0.3,0.1-0.7,0.2-1.1,0.2H13.9c-0.4,0-0.8-0.1-1.1-0.2c-0.3-0.1-0.6-0.4-0.9-0.6c-0.3-0.3-0.5-0.6-0.6-0.9
			c-0.1-0.3-0.2-0.7-0.2-1.1v-20c0-0.4,0.1-0.8,0.2-1.1c0.1-0.3,0.4-0.6,0.6-0.9c0.3-0.3,0.6-0.5,0.9-0.6c0.3-0.1,0.7-0.2,1.1-0.2
			h19.4l7.3-7.3c0.4-0.4,0.9-0.7,1.4-1c0.5-0.2,1.1-0.3,1.7-0.3c0.6,0,1.2,0.1,1.7,0.4c0.5,0.2,1,0.6,1.4,1c0.4,0.4,0.7,0.9,1,1.4
			c0.2,0.5,0.4,1.1,0.4,1.7c0,0.5-0.1,0.9-0.2,1.3c-0.1,0.4-0.3,0.7-0.5,1s-0.4,0.6-0.7,0.9C46.6,21.1,46.3,21.4,45.9,21.7z
			 M51.1,24.6h-8l-15,15l-8.4,2.1l2.1-8.4l8.7-8.7H13.9v20h37.1V24.6z M43.7,16c-0.4,0-0.8,0.2-1.1,0.5L24.3,34.8l-0.8,3l3-0.8
			l15.2-15.2c0,0,0-0.1,0-0.1c0,0,0.1-0.1,0.1,0c0.2-0.2,0.5-0.4,0.8-0.8c0.4-0.3,0.8-0.7,1.2-1.1c0.4-0.4,0.7-0.8,1-1.2
			s0.4-0.8,0.4-1.1c0-0.4-0.2-0.8-0.5-1.1C44.5,16.1,44.2,16,43.7,16z"/>
	</g>
</g>
<g>
</g>
<g>
</g>
<g>
</g>
<g>
</g>
<g>
</g>
<g>
</g>
</svg>
