<?xml version="1.0" encoding="utf-8"?>
<!-- Generator: Adobe Illustrator 19.2.0, SVG Export Plug-In . SVG Version: 6.00 Build 0)  -->
<svg version="1.1" id="Layer_1" xmlns="http://www.w3.org/2000/svg" xmlns:xlink="http://www.w3.org/1999/xlink" x="0px" y="0px"
	 viewBox="0 0 64 64" style="enable-background:new 0 0 64 64;" xml:space="preserve">
<style type="text/css">
	.st0{fill:#010101;}
</style>
<g>
	<path class="st0" d="M45.4,26.2c0.6,0,1.1,0.1,1.7,0.3c0.5,0.2,1,0.5,1.3,0.8s0.7,0.8,0.9,1.3c0.2,0.5,0.3,1,0.3,1.5v12
		c0,1.7-0.4,3.2-1.1,4.5c-0.7,1.3-1.7,2.4-3,3.3s-2.6,1.5-4.2,2c-1.6,0.4-3.2,0.7-4.9,0.7c-0.9,0-1.8,0-2.5-0.1s-1.4-0.1-2.1-0.3
		c-0.7-0.2-1.3-0.4-2-0.7c-0.7-0.3-1.4-0.7-2.2-1.2c-0.2-0.1-0.4-0.3-0.8-0.6c-0.4-0.3-0.8-0.7-1.3-1.2s-1.1-1-1.7-1.5
		c-0.6-0.6-1.2-1.1-1.9-1.8c-0.6-0.6-1.3-1.2-1.9-1.8c-0.6-0.6-1.2-1.1-1.7-1.7s-1-1-1.4-1.4c-0.4-0.4-0.7-0.7-0.9-0.9
		c-0.5-0.6-0.8-1.2-0.8-2c0-0.5,0.1-0.9,0.3-1.3c0.2-0.4,0.5-0.8,0.8-1.1c0.3-0.3,0.7-0.6,1.2-0.8c0.4-0.2,0.9-0.3,1.4-0.3
		c0.9,0,1.8,0.1,2.7,0.4c0.9,0.3,1.7,0.6,2.6,0.9V28c-0.9-0.4-1.6-0.9-2.3-1.5c-0.7-0.6-1.3-1.2-1.8-2c-0.5-0.7-0.9-1.5-1.1-2.3
		c-0.3-0.8-0.4-1.7-0.4-2.6c0-1.3,0.3-2.5,0.8-3.6c0.5-1.1,1.2-2.1,2.1-2.9c0.9-0.8,1.9-1.5,3.1-2c1.2-0.5,2.5-0.7,3.9-0.7
		c1.4,0,2.7,0.2,3.9,0.7c1.2,0.5,2.3,1.1,3.2,2c0.9,0.8,1.6,1.8,2.1,2.9c0.5,1.1,0.8,2.3,0.8,3.6c0,0.9-0.1,1.7-0.4,2.5
		c-0.3,0.8-0.6,1.6-1.1,2.4l0,0c0.4-0.3,0.8-0.6,1.3-0.7c0.5-0.2,1-0.3,1.5-0.3c0.5,0,0.9,0.1,1.4,0.2c0.4,0.1,0.8,0.3,1.2,0.6
		c0.4,0.3,0.7,0.6,0.9,0.9c0.3,0.4,0.5,0.7,0.6,1.2C44.3,26.3,44.8,26.2,45.4,26.2z M46.8,30.1c0-0.4-0.1-0.7-0.4-0.9
		c-0.3-0.3-0.6-0.4-1-0.4c-0.4,0-0.7,0.1-0.9,0.3c-0.2,0.2-0.4,0.5-0.5,0.8c-0.1,0.3-0.2,0.7-0.2,1.1c0,0.4,0,0.8,0,1.2
		c0,0.4,0,0.8,0.1,1.1c0,0.3,0.1,0.6,0.1,0.8h-2.8v-6.6c0-0.4-0.1-0.7-0.4-0.9c-0.3-0.3-0.6-0.4-1-0.4c-0.4,0-0.7,0.1-1,0.4
		c-0.3,0.3-0.4,0.6-0.4,0.9v6.6h-2.8v-6.6c0-0.1,0-0.1,0-0.2c0,0,0-0.1,0-0.2c0,0,0,0,0-0.1c0,0,0-0.1,0,0c-0.1-0.2-0.3-0.4-0.5-0.6
		c-0.2-0.2-0.5-0.2-0.8-0.2c-0.4,0-0.7,0.1-1,0.4c-0.3,0.3-0.4,0.6-0.4,0.9v6.6h-2.8V19.6c0-0.4-0.1-0.7-0.4-0.9
		c-0.3-0.3-0.6-0.4-1-0.4c-0.4,0-0.7,0.1-1,0.4c-0.3,0.3-0.4,0.6-0.4,0.9v19.9c-0.4-0.2-1-0.4-1.7-0.7c-0.7-0.3-1.4-0.6-2.2-0.9
		s-1.5-0.6-2.2-0.8c-0.7-0.2-1.3-0.3-1.8-0.3c-0.7,0-1,0.3-1,0.9v0.1c0.9,0.9,1.9,1.8,2.8,2.7c0.9,0.9,1.9,1.7,2.8,2.6
		c0.8,0.7,1.4,1.4,2,2c0.6,0.6,1.2,1.2,1.7,1.7c0.5,0.5,1.1,1,1.6,1.4c0.6,0.4,1.2,0.7,1.9,1s1.5,0.5,2.4,0.6
		c0.9,0.1,1.9,0.2,3.2,0.2c1.3,0,2.5-0.2,3.7-0.5c1.2-0.3,2.3-0.8,3.3-1.4c1-0.6,1.8-1.4,2.4-2.4c0.6-1,0.9-2.1,0.9-3.5V30.1z
		 M21.3,19.6c0,1,0.2,2,0.7,2.9c0.5,0.9,1.2,1.7,2.1,2.3c0-0.5,0-1.1-0.1-1.8c0-0.7,0-1.3,0-2c0-0.7,0.1-1.4,0.2-2
		c0.1-0.7,0.3-1.2,0.7-1.7s0.8-0.9,1.3-1.2s1.3-0.5,2.2-0.5c0.8,0,1.5,0.1,2,0.4c0.5,0.3,1,0.6,1.3,1c0.3,0.4,0.5,0.9,0.7,1.5
		c0.1,0.6,0.2,1.1,0.3,1.8c0,0.6,0,1.2,0,1.8c0,0.6,0,1.2,0,1.7c0.5-0.2,1-0.2,1.5-0.2c0.5-0.6,0.8-1.2,1-1.9
		c0.2-0.7,0.4-1.4,0.4-2.1c0-0.9-0.2-1.8-0.6-2.6c-0.4-0.8-0.9-1.5-1.5-2.1c-0.6-0.6-1.4-1.1-2.2-1.4c-0.9-0.3-1.8-0.5-2.7-0.5
		c-1,0-1.9,0.2-2.7,0.5c-0.9,0.3-1.6,0.8-2.2,1.4c-0.6,0.6-1.1,1.3-1.5,2.1S21.3,18.7,21.3,19.6z"/>
</g>
<g>
</g>
<g>
</g>
<g>
</g>
<g>
</g>
<g>
</g>
<g>
</g>
</svg>
