<svg id="Layer_4" xmlns="http://www.w3.org/2000/svg" viewBox="0 0 30 30.4"><style>.st0{fill:#fff}</style><path class="st0" d="M28.9 3.2H19v2h3v3h-3v1h3v3h-3v1h3v3h-3v1h3v3h-3v1h3v3h-3v2h9.9c.3 0 1.1-.5 1.1-.9V4.1c0-.4-.7-.9-1.1-.9zm-.9 21h-5v-3h5v3zm0-4h-5v-3h5v3zm0-4h-5v-3h5v3zm0-4h-5v-3h5v3zm0-4h-5v-3h5v3zM0 4.1v22.1l18 4.1V0L0 4.1zm10.6 17.3l-1.8-4.1v-.1c0-.1 0-.1-.1-.2 0-.1 0-.1-.1-.2 0-.1 0-.2-.1-.3v.4c0 .1 0 .1-.1.2 0 .1-.1.2-.1.3l-1.7 3.8-2.7-.2L7 15.2 4.2 9.4l2.7-.2 1.4 3.5c0 .1.1.1.1.2s.1.2.1.2c0 .1.1.2.1.3 0 .1 0 .2.1.3 0-.1 0-.1.1-.2 0-.1 0-.2.1-.2 0-.1.1-.2.1-.3 0-.1.1-.2.1-.3L10.6 9l2.8-.2-3.3 6.3 3.4 6.4-2.9-.1z"/></svg>