<svg id="logo" xmlns="http://www.w3.org/2000/svg" viewBox="0 0 89 88"><style>.st0{fill:#fff}</style><path class="st0" d="M87 35h-3v18h3c1 0 2-1 2-2V37c0-1-1-2-2-2zM87 55h-3v18h3c1 0 2-1 2-2V57c0-1-1-2-2-2z"/><path class="st0" d="M87 15h-5v-3.1c0-1-1.3-1.9-1.3-1.9H54v10h20v4H54v5h20v4H54v5h20v4H54v5h20v4H54v5h20v4H54v5h20v4H54v9h26c1 0 2-.9 2-1.9V33h5c1 0 2-1 2-2V17c0-1.1-1-2-2-2zM0 8.8v70.4L52 88V0L0 8.8zM39 61l-6.7-.4-11.5-21.2c-.2-.3-.3-.6-.4-.8-.1-.3-.3-.5-.4-.7l-.3-.6c-.1-.2-.5-.4-.5-.5 0 .3-.2.6-.2 1V60l-5-.3V27.5l6.4-.3 11 20 .3.6c.1.2.2.4.3.7.1.2.3.5.4.7.1.3.3.5.4.8h.1c0-.2-.1-.5-.1-.8 0-.3-.1-.3-.1-.7v-1.2-20.8l6.3-.4V61z"/></svg>