<svg id="Layer_4" xmlns="http://www.w3.org/2000/svg" viewBox="0 0 30 30.4"><style>.st0{fill:#fff}</style><path class="st0" d="M29 4.2H19v4.6c.6-.3 1.3-.6 2-.6v4h4c0 2.2-1.8 4-4 4-.7 0-1.4-.2-2-.6v3.6h8v1h-8v2h8v1h-8v3h10c.4 0 1-.6 1-1v-20c0-.4-.6-1-1-1zm-7 7v-4c2.2 0 4 1.8 4 4h-4zM0 4.1v22.1l18 4.1V0L0 4.1zm12.9 9.6c0 .3-.1.6-.2.8-.1.3-.2.5-.4.7-.1.2-.3.4-.5.6-.2.2-.4.4-.7.5-.2.2-.5.3-.8.4-.3.2-.6.3-.9.4-.3 0-.6.1-1 .1l-1.2.1v4.3L5 21.3V9.1l3.7-.2c.7 0 1.3 0 1.8.2.5.1 1 .4 1.3.7.4.3.6.7.8 1.3.2.5.3 1.1.3 1.8.1.2 0 .5 0 .8z"/><path class="st0" d="M9.7 11.5c-.2-.2-.4-.3-.6-.3-.2-.1-.5-.1-.9-.1l-.9.1V15h.9c.3 0 .6 0 .9-.1.2-.1.5-.2.6-.4.2-.2.3-.4.4-.6.1-.3.1-.5.1-.9 0-.3 0-.6-.1-.9-.1-.2-.2-.4-.4-.6z"/></svg>