<svg id="Layer_1" xmlns="http://www.w3.org/2000/svg" viewBox="0 0 72 72.1"><style>.st0{fill:#fff}</style><g id="XMLID_14_"><path id="XMLID_15_" class="st0" d="M35.8 55.4c-2.4 0-4.7-.3-7-.9-2.3-.6-4.5-1.5-6.6-2.6-2.1-1.1-4-2.5-5.7-4.1s-3.2-3.4-4.5-5.5c-.4-.6-.6-1.3-.6-2 0-.5.1-1 .3-1.4.2-.4.5-.8.8-1.2.3-.3.7-.6 1.2-.8.4-.2.9-.3 1.4-.3.7 0 1.2.2 1.8.5.5.3 1 .7 1.3 1.3 2.2 3.2 4.8 5.6 7.8 7.3 3 1.7 6.4 2.5 10.4 2.5 3.7 0 7.1-.9 10.1-2.6 3-1.7 5.5-4.1 7.6-7.2.4-.5.8-.9 1.2-1.2.5-.3 1-.5 1.7-.5 1.1 0 1.9.3 2.7 1 .7.7 1.1 1.5 1.1 2.6 0 .4 0 .7-.1 1-.1.3-.2.6-.4.9-.6 1-1.2 2-2 2.9-.8.9-1.6 1.7-2.4 2.6-2.7 2.6-5.7 4.5-9.1 5.8-3.7 1.2-7.3 1.9-11 1.9zm-7.1-35c0 .8-.2 1.5-.5 2.2-.3.7-.7 1.3-1.2 1.8s-1.1.9-1.8 1.2c-.7.3-1.4.5-2.2.5-.8 0-1.5-.2-2.2-.5-.7-.3-1.3-.7-1.8-1.2s-.9-1.1-1.2-1.8c-.3-.7-.5-1.4-.5-2.2 0-.8.1-1.5.4-2.3.3-.7.7-1.3 1.2-1.8s1.1-.9 1.8-1.2c.7-.3 1.4-.5 2.2-.5.8 0 1.5.2 2.2.5.7.3 1.3.7 1.8 1.2s.9 1.1 1.2 1.8c.4.7.6 1.5.6 2.3zm14.7 0c0-.8.2-1.5.5-2.3.3-.7.7-1.3 1.2-1.8s1.1-.9 1.8-1.2c.7-.3 1.5-.5 2.3-.5.8 0 1.5.2 2.2.5.7.3 1.3.7 1.8 1.2s.9 1.1 1.2 1.8c.3.7.4 1.4.4 2.2 0 .8-.2 1.5-.5 2.2-.3.7-.7 1.3-1.2 1.8s-1.1.9-1.8 1.2c-.7.3-1.4.5-2.2.5-.8 0-1.5-.2-2.2-.5-.7-.3-1.3-.7-1.8-1.2s-.9-1.1-1.2-1.8c-.3-.6-.5-1.3-.5-2.1z"/></g></svg>