<svg xmlns="http://www.w3.org/2000/svg" viewBox="0 0 1120.8 787"><defs><style>.a{fill:#fff;}.b,.d{fill:none;stroke:#fff;stroke-miterlimit:10;}.b{stroke-width:2px;}.c{opacity:0.8;}</style></defs><title>display</title><path class="a" d="M514,324.6v52.9h-3.3V329.9A25.82,25.82,0,0,1,505,334a44.84,44.84,0,0,1-7,3.1v-3a40.81,40.81,0,0,0,4.2-1.7,27.06,27.06,0,0,0,3.7-2.1c1.2-.8,2.3-1.6,3.5-2.5s2.3-1.9,3.4-3H514v-0.2Z"/><path class="a" d="M525.5,375.6v-3.8a22.36,22.36,0,0,0,11.1,3.5c4.2,0,7.4-1.1,9.8-3.2a10.46,10.46,0,0,0,3.5-8.3,10.2,10.2,0,0,0-4.1-8.7c-2.7-2-6.6-3-11.6-3h-4v-3h3.5c4.6,0,8.1-1,10.5-2.9a11.45,11.45,0,0,0,1-15.6c-1.8-1.8-4.3-2.6-7.7-2.6a19,19,0,0,0-10.2,3.4v-3.5A25,25,0,0,1,538,325c4.1,0,7.3,1.1,9.7,3.3a11.31,11.31,0,0,1,3.6,8.8c0,7-3.4,11.4-10.1,13.3v0.1a13.64,13.64,0,0,1,8.7,4,12.09,12.09,0,0,1,3.2,8.8,13.85,13.85,0,0,1-4.7,10.9c-3.1,2.8-7.2,4.1-12.1,4.1A23.65,23.65,0,0,1,525.5,375.6Z"/><path class="a" d="M567.6,378.1a3.23,3.23,0,0,1-2.1-.8,2.78,2.78,0,0,1-.8-2.1,3.23,3.23,0,0,1,.8-2.1,3.16,3.16,0,0,1,4.2,0,2.58,2.58,0,0,1,.9,2.1,2.88,2.88,0,0,1-.9,2.1A3.23,3.23,0,0,1,567.6,378.1Z"/><path class="a" d="M581.6,376.4v-3.8a20.51,20.51,0,0,0,9.9,2.7c4.2,0,7.5-1.2,9.9-3.5a12.28,12.28,0,0,0,3.6-9.3q0-12.6-14.4-12.6a68.31,68.31,0,0,0-7.4.4l1.5-24.6h21.5v3H587.6l-1.2,18.4c2.5-.2,4.3-0.3,5.3-0.3,5.5,0,9.6,1.3,12.4,4s4.2,6.4,4.2,11.2a16.22,16.22,0,0,1-4.5,11.8c-3,3-7.2,4.5-12.8,4.5A21.63,21.63,0,0,1,581.6,376.4Z"/><path class="a" d="M620.5,341.9h-2.6l4.5-16.2h3.7Zm9.1,0h-2.7l4.4-16.2h3.9Z"/><path class="b" d="M1094.6,779.5H26.6a20.06,20.06,0,0,1-20-20V25.7a20.06,20.06,0,0,1,20-20h1068a20.06,20.06,0,0,1,20,20V759.4A20.08,20.08,0,0,1,1094.6,779.5Z"/><path class="a" d="M161,674.5v-2.1a12,12,0,0,0,6.1,1.9,7.66,7.66,0,0,0,5.4-1.8,5.89,5.89,0,0,0,1.9-4.6,5.55,5.55,0,0,0-2.2-4.8,10.49,10.49,0,0,0-6.3-1.6h-2.2V660h1.9c2.5,0,4.5-.5,5.8-1.6a5.57,5.57,0,0,0-3.6-10.1,10.15,10.15,0,0,0-5.6,1.9v-1.9a12.79,12.79,0,0,1,5.9-1.6,7.57,7.57,0,0,1,5.3,1.8,6.25,6.25,0,0,1,2,4.8c0,3.8-1.8,6.3-5.5,7.3v0.1a6.83,6.83,0,0,1,6.5,7,7.64,7.64,0,0,1-2.6,6,9.72,9.72,0,0,1-6.7,2.3A13.4,13.4,0,0,1,161,674.5Z"/><path class="a" d="M184.1,658.1a1.56,1.56,0,0,1-1.1-2.7,1.71,1.71,0,0,1,2.2,0,1.46,1.46,0,0,1,0,2.2A1.43,1.43,0,0,1,184.1,658.1Zm0,17.8a1.72,1.72,0,0,1-1.6-1.6,1.43,1.43,0,0,1,.5-1.1,1.71,1.71,0,0,1,2.2,0,1.46,1.46,0,0,1,0,2.2A1.43,1.43,0,0,1,184.1,675.9Z"/><path class="a" d="M190.5,675.5v-1.3a16.59,16.59,0,0,1,.2-2.4,5.36,5.36,0,0,1,.7-1.9,9.91,9.91,0,0,1,1.1-1.7c0.4-.5,1-1,1.5-1.6s1.3-1.1,2-1.6a29.94,29.94,0,0,0,2.4-1.8,25,25,0,0,0,2.4-1.8,11.9,11.9,0,0,0,1.9-2,7.55,7.55,0,0,0,1.3-2.3,8.36,8.36,0,0,0,.5-2.9,5.82,5.82,0,0,0-1.6-4.4,6.06,6.06,0,0,0-4.4-1.6,9.46,9.46,0,0,0-3.7.8,14.56,14.56,0,0,0-3.4,2.3v-2.1a15.13,15.13,0,0,1,3.5-2,10.72,10.72,0,0,1,3.9-.7,10.07,10.07,0,0,1,3.1.5,6.08,6.08,0,0,1,2.4,1.5,5.13,5.13,0,0,1,1.5,2.3,7.29,7.29,0,0,1,.5,3,9.51,9.51,0,0,1-.6,3.5,11.74,11.74,0,0,1-1.5,2.7,12.51,12.51,0,0,1-2.3,2.3l-2.7,2.1a37.76,37.76,0,0,0-3.2,2.4,14.88,14.88,0,0,0-2.2,2.1,5.66,5.66,0,0,0-1.2,2.1,8.72,8.72,0,0,0-.4,2.5v0.3h14.1v1.7H190.5Z"/><path class="a" d="M231.4,675.5v-2.9h-0.1a5,5,0,0,1-2,2.3,5,5,0,0,1-2.9.9,4.59,4.59,0,0,1-3.2-1.1,3.85,3.85,0,0,1-1.2-2.9c0-2.5,1.7-4,5-4.5l4.4-.7c0-3.1-1.2-4.6-3.5-4.6a6.87,6.87,0,0,0-4.6,1.9v-1.5a6.4,6.4,0,0,1,2.2-1.1,8.24,8.24,0,0,1,2.6-.4,4.29,4.29,0,0,1,3.4,1.4,5.8,5.8,0,0,1,1.2,4v9.3h-1.3v-0.1Zm-3.9-7.1a8.59,8.59,0,0,0-3.2,1,2.87,2.87,0,0,0-.9,2.3,3.23,3.23,0,0,0,.8,2.1,3.46,3.46,0,0,0,2.4.8,4.33,4.33,0,0,0,3.4-1.5,5.64,5.64,0,0,0,1.4-3.9v-1.4Z"/><path class="a" d="M236.2,674.9v-1.5a7.68,7.68,0,0,0,1.8,1,7.42,7.42,0,0,0,1.8.4c2.2,0,3.4-.9,3.4-2.7a2,2,0,0,0-.7-1.6,11.68,11.68,0,0,0-2.4-1.4,9.08,9.08,0,0,1-2.9-1.8,3.09,3.09,0,0,1-.8-2.3,3.29,3.29,0,0,1,1.3-2.8,5.24,5.24,0,0,1,3.3-1.1,6.6,6.6,0,0,1,3.2.8v1.5a6,6,0,0,0-3.3-1,3.51,3.51,0,0,0-2.3.7,2.32,2.32,0,0,0-.9,1.9,3.1,3.1,0,0,0,.5,1.7,10.09,10.09,0,0,0,2.4,1.5,11.19,11.19,0,0,1,3.1,1.9,3,3,0,0,1,.8,2.3,3.41,3.41,0,0,1-1.3,2.8,5.42,5.42,0,0,1-3.5,1.1A14.19,14.19,0,0,1,236.2,674.9Z"/><path class="a" d="M249.4,673h0l-0.1,9.1H248V661.2h1.3v2.9h0.1a4.71,4.71,0,0,1,2.2-2.4,6.93,6.93,0,0,1,3.1-.9,5,5,0,0,1,4.2,1.9,8.14,8.14,0,0,1,1.5,5.1,8.93,8.93,0,0,1-1.8,5.8,5.55,5.55,0,0,1-4.6,2.2A4.75,4.75,0,0,1,249.4,673Zm0-5.3v1.8a5.49,5.49,0,0,0,1.4,3.7,4.61,4.61,0,0,0,3.6,1.5,4.25,4.25,0,0,0,3.6-1.9,8.35,8.35,0,0,0,1.4-4.9,6.49,6.49,0,0,0-1.3-4.3,3.94,3.94,0,0,0-3.3-1.6,4.78,4.78,0,0,0-3.9,1.7A5.42,5.42,0,0,0,249.4,667.7Z"/><path class="a" d="M264.4,668.4a7,7,0,0,0,1.4,4.6,4.65,4.65,0,0,0,3.7,1.7,7.5,7.5,0,0,0,4.7-1.8v1.4a8.07,8.07,0,0,1-5,1.6,5.91,5.91,0,0,1-4.5-2,8.51,8.51,0,0,1-1.7-5.6,8.1,8.1,0,0,1,1.8-5.3,5.74,5.74,0,0,1,4.6-2.1,4.77,4.77,0,0,1,4.1,1.9,8.36,8.36,0,0,1,1.4,5.1v0.6H264.4v-0.1Zm9.2-1.1a6.85,6.85,0,0,0-1.2-3.8,3.61,3.61,0,0,0-3-1.4,4.45,4.45,0,0,0-3.3,1.3,6.36,6.36,0,0,0-1.6,3.9h9.1Z"/><path class="a" d="M287.8,674.9a6.74,6.74,0,0,1-3.8,1,6.19,6.19,0,0,1-4.7-2,7.48,7.48,0,0,1-1.8-5.2,8.16,8.16,0,0,1,2-5.6,6.59,6.59,0,0,1,5.2-2.2,7.41,7.41,0,0,1,3.2.7v1.5a6.4,6.4,0,0,0-3.4-.9,5.24,5.24,0,0,0-4.1,1.8,6.71,6.71,0,0,0-1.6,4.7,7.11,7.11,0,0,0,1.4,4.5,4.44,4.44,0,0,0,3.8,1.7,6.47,6.47,0,0,0,3.7-1.1v1.1h0.1Z"/><path class="a" d="M296.8,675.3a4.89,4.89,0,0,1-1.9.5c-2.1,0-3.2-1.3-3.2-3.8v-9.6h-2.6v-1.2h2.6v-3.7c0.2-.1.4-0.1,0.6-0.2s0.4-.1.6-0.2v4.1h3.8v1.2h-3.8v9.4a3.58,3.58,0,0,0,.5,2.1,1.87,1.87,0,0,0,1.6.7,4.06,4.06,0,0,0,1.7-.5v1.2h0.1Z"/><path class="a" d="M314.3,662.6a2.46,2.46,0,0,0-1.5-.5,3.32,3.32,0,0,0-2.8,1.7,8.84,8.84,0,0,0-1.1,5v6.7h-1.3V661.2h1.3v3.2H309a4.82,4.82,0,0,1,1.5-2.5,3.66,3.66,0,0,1,2.5-.9,3.19,3.19,0,0,1,1.4.3v1.3h-0.1Z"/><path class="a" d="M325.5,675.5v-2.9h-0.1a5,5,0,0,1-2,2.3,5,5,0,0,1-2.9.9,4.59,4.59,0,0,1-3.2-1.1,3.7,3.7,0,0,1-1.2-2.9c0-2.5,1.7-4,5-4.5l4.4-.7c0-3.1-1.2-4.6-3.5-4.6a6.87,6.87,0,0,0-4.6,1.9v-1.5a6.4,6.4,0,0,1,2.2-1.1,8.24,8.24,0,0,1,2.6-.4,4.29,4.29,0,0,1,3.4,1.4,5.8,5.8,0,0,1,1.2,4v9.3h-1.3v-0.1Zm-3.9-7.1a8.59,8.59,0,0,0-3.2,1,2.87,2.87,0,0,0-.9,2.3,3.23,3.23,0,0,0,.8,2.1,3.46,3.46,0,0,0,2.4.8,4.33,4.33,0,0,0,3.4-1.5,5.64,5.64,0,0,0,1.4-3.9v-1.4Z"/><path class="a" d="M336.7,675.3a4.89,4.89,0,0,1-1.9.5c-2.1,0-3.2-1.3-3.2-3.8v-9.6H329v-1.2h2.6v-3.7c0.2-.1.4-0.1,0.6-0.2s0.4-.1.6-0.2v4.1h3.8v1.2H333v9.4a3.58,3.58,0,0,0,.5,2.1,1.87,1.87,0,0,0,1.6.7,4.06,4.06,0,0,0,1.7-.5v1.2h-0.1Z"/><path class="a" d="M340.2,657.6a0.91,0.91,0,0,1-.7-0.3,1.14,1.14,0,0,1-.3-0.8,0.78,0.78,0,0,1,.3-0.7,1.08,1.08,0,0,1,.7-0.3,1.33,1.33,0,0,1,.8.3,1,1,0,0,1,.3.8,1.14,1.14,0,0,1-.3.8A2.35,2.35,0,0,1,340.2,657.6Zm-0.6,17.9V661.2h1.3v14.3h-1.3Z"/><path class="a" d="M351.2,675.9a6.07,6.07,0,0,1-4.9-2.1,8,8,0,0,1-1.8-5.4,7.77,7.77,0,0,1,1.9-5.6,6.35,6.35,0,0,1,5-2,6.25,6.25,0,0,1,4.8,2,7.92,7.92,0,0,1,1.8,5.5,8,8,0,0,1-1.8,5.4A6.32,6.32,0,0,1,351.2,675.9Zm0-13.8a5.13,5.13,0,0,0-4,1.7,6.8,6.8,0,0,0-1.5,4.7,6.44,6.44,0,0,0,1.5,4.5,5.56,5.56,0,0,0,8,0,7.21,7.21,0,0,0,1.4-4.6,7.31,7.31,0,0,0-1.4-4.7A4.93,4.93,0,0,0,351.2,662.1Z"/><g class="c"><path class="a" d="M467.1,420.3v6.3h-2V409.9h4.6a5.62,5.62,0,0,1,4.1,1.3,4.68,4.68,0,0,1,1.5,3.7,5,5,0,0,1-1.6,3.9,6.35,6.35,0,0,1-4.4,1.5h-2.2Zm0-8.6v6.8h2a4.77,4.77,0,0,0,3.1-.9,3.31,3.31,0,0,0,1.1-2.6q0-3.3-3.9-3.3h-2.3Z"/><path class="a" d="M479.2,411.6a1.61,1.61,0,0,1-.9-0.3,1.27,1.27,0,0,1-.4-0.9,1,1,0,0,1,.4-0.9,1.27,1.27,0,0,1,.9-0.4,1.22,1.22,0,0,1,.9.4,1.27,1.27,0,0,1,.4.9A1.2,1.2,0,0,1,479.2,411.6Zm1,15h-1.9V414.7h1.9v11.9Z"/><path class="a" d="M492.7,414.7l-4,6,3.9,5.9h-2.2l-2.3-3.9c-0.1-.2-0.3-0.5-0.5-0.9h0a4.54,4.54,0,0,1-.5.9l-2.4,3.9h-2.2l4.1-5.8-3.9-6.1h2.2l2.3,4.1c0.2,0.3.3,0.6,0.5,0.9h0l3-5h2Z"/><path class="a" d="M504.5,421.1h-8.4a4.5,4.5,0,0,0,1.1,3.1,3.76,3.76,0,0,0,2.8,1.1,5.77,5.77,0,0,0,3.7-1.3v1.8a6.56,6.56,0,0,1-4.2,1.1,5.06,5.06,0,0,1-4-1.6,6.51,6.51,0,0,1-1.4-4.6,6.05,6.05,0,0,1,1.6-4.5,5,5,0,0,1,3.9-1.8,4.47,4.47,0,0,1,3.6,1.5,6,6,0,0,1,1.3,4.2v1Zm-1.9-1.6a4,4,0,0,0-.8-2.6,2.79,2.79,0,0,0-2.2-.9,2.9,2.9,0,0,0-2.3,1,5.32,5.32,0,0,0-1.2,2.5h6.5Z"/><path class="a" d="M509.3,426.6h-1.9V409h1.9v17.6Z"/><path class="a" d="M512.6,425.9v-2.3l0.9,0.6c0.4,0.2.8,0.3,1.2,0.5a5.27,5.27,0,0,0,1.2.3,4.48,4.48,0,0,0,1.1.1,4.15,4.15,0,0,0,2.7-.7,2.2,2.2,0,0,0,.9-1.9,2.38,2.38,0,0,0-.3-1.2,6.47,6.47,0,0,0-.8-0.9,12.48,12.48,0,0,0-1.2-.8c-0.4-.3-1-0.5-1.5-0.8s-1.1-.6-1.6-0.9a6.42,6.42,0,0,1-1.3-1,4.7,4.7,0,0,1-.9-1.2,4.15,4.15,0,0,1-.3-1.6,4.23,4.23,0,0,1,.5-2,4.36,4.36,0,0,1,1.3-1.4,5.45,5.45,0,0,1,1.9-.8,7.61,7.61,0,0,1,2.1-.3,8.36,8.36,0,0,1,3.6.6v2.2a6.32,6.32,0,0,0-3.8-1,5.7,5.7,0,0,0-1.3.1,3.58,3.58,0,0,0-1.1.4,3,3,0,0,0-.8.8,2.13,2.13,0,0,0-.3,1.2,3.59,3.59,0,0,0,.2,1.1,2.7,2.7,0,0,0,.7.8,10.55,10.55,0,0,0,1.1.7c0.4,0.2,1,.5,1.5.8s1.2,0.6,1.7.9a7.55,7.55,0,0,1,1.4,1.1,6.42,6.42,0,0,1,1,1.3,4.26,4.26,0,0,1,.4,1.7,4.65,4.65,0,0,1-.5,2.1,4.36,4.36,0,0,1-1.3,1.4,5.45,5.45,0,0,1-1.9.8,8.58,8.58,0,0,1-2.3.2,3.75,3.75,0,0,1-1-.1,5,5,0,0,1-1.2-.2c-0.4-.1-0.8-0.2-1.1-0.3Z"/><path class="a" d="M535.4,421.1H527a4.51,4.51,0,0,0,1.1,3.1,3.76,3.76,0,0,0,2.8,1.1,5.77,5.77,0,0,0,3.7-1.3v1.8a6.56,6.56,0,0,1-4.2,1.1,5.06,5.06,0,0,1-4-1.6,6.51,6.51,0,0,1-1.4-4.6,6.05,6.05,0,0,1,1.6-4.5,5.12,5.12,0,0,1,3.9-1.8,4.33,4.33,0,0,1,3.6,1.5,6.58,6.58,0,0,1,1.3,4.2v1h0Zm-2-1.6a4,4,0,0,0-.8-2.6,2.79,2.79,0,0,0-2.2-.9,2.9,2.9,0,0,0-2.3,1,5.32,5.32,0,0,0-1.2,2.5h6.5Z"/><path class="a" d="M548.2,426.6h-1.9v-6.8c0-2.5-.9-3.8-2.8-3.8a3.19,3.19,0,0,0-2.4,1.1,3.56,3.56,0,0,0-.9,2.7v6.8h-1.9V414.7h1.9v2h0a4.34,4.34,0,0,1,3.9-2.3,3.54,3.54,0,0,1,3,1.3,5.51,5.51,0,0,1,1,3.6v7.3h0.1Z"/><path class="a" d="M551,426.1v-2a5.43,5.43,0,0,0,3.4,1.2c1.7,0,2.5-.6,2.5-1.7a1.88,1.88,0,0,0-.2-0.8,1.7,1.7,0,0,0-.6-0.6,3.6,3.6,0,0,0-.9-0.5c-0.3-.1-0.7-0.3-1.1-0.4s-1-.4-1.4-0.6a8.65,8.65,0,0,1-1-.7,1.8,1.8,0,0,1-.6-0.9,3.73,3.73,0,0,1-.2-1.2,2.41,2.41,0,0,1,.4-1.5,4,4,0,0,1,2.5-1.8,8.81,8.81,0,0,1,1.7-.2,8.21,8.21,0,0,1,2.8.5v1.9a5.29,5.29,0,0,0-3-.9,3.08,3.08,0,0,0-1,.1,4.88,4.88,0,0,0-.7.3,1.2,1.2,0,0,0-.5.5,1.45,1.45,0,0,0-.2.7,1.88,1.88,0,0,0,.2.8,2.65,2.65,0,0,0,.5.6,2,2,0,0,0,.8.4c0.3,0.1.7,0.3,1.1,0.4s1,0.4,1.4.6a10.54,10.54,0,0,1,1.1.7,5.5,5.5,0,0,1,.7.9,2.34,2.34,0,0,1,.2,1.2,2.41,2.41,0,0,1-.4,1.5,5.24,5.24,0,0,1-1,1.1,3.39,3.39,0,0,1-1.5.6,11,11,0,0,1-1.8.2A4.32,4.32,0,0,1,551,426.1Z"/><path class="a" d="M571.4,421.1H563a4.51,4.51,0,0,0,1.1,3.1,3.76,3.76,0,0,0,2.8,1.1,5.77,5.77,0,0,0,3.7-1.3v1.8a6.56,6.56,0,0,1-4.2,1.1,5.06,5.06,0,0,1-4-1.6,6.51,6.51,0,0,1-1.4-4.6,6.05,6.05,0,0,1,1.6-4.5,5,5,0,0,1,3.9-1.8,4.47,4.47,0,0,1,3.6,1.5,6,6,0,0,1,1.3,4.2v1h0Zm-1.9-1.6a4,4,0,0,0-.8-2.6,2.79,2.79,0,0,0-2.2-.9,2.9,2.9,0,0,0-2.3,1,5.32,5.32,0,0,0-1.2,2.5h6.5Z"/><path class="a" d="M579.4,411H577v6.6h-1.3V411h-2.4v-1.1h6.1V411h0Zm9.2,6.6h-1.3V412h0l-2.5,5.6h-0.7l-2.5-5.6h0v5.6h-1.2v-7.7h1.5l2.6,5.8h0l2.7-5.8h1.5v7.7h-0.1Z"/><path class="a" d="M609.4,426.6h-1.9v-2h0a4.43,4.43,0,0,1-4.1,2.3,4.38,4.38,0,0,1-3.6-1.6,6.6,6.6,0,0,1-1.3-4.4,7,7,0,0,1,1.5-4.7,4.9,4.9,0,0,1,4-1.8,3.91,3.91,0,0,1,3.6,1.9h0v-7.4h1.9v17.7h-0.1Zm-1.9-5.4v-1.8a3.42,3.42,0,0,0-6.1-2.1,5.4,5.4,0,0,0-1,3.5,4.83,4.83,0,0,0,1,3.3,3.09,3.09,0,0,0,2.6,1.2,3.22,3.22,0,0,0,2.6-1.2A4.76,4.76,0,0,0,607.5,421.2Z"/><path class="a" d="M614.3,411.6a1.61,1.61,0,0,1-.9-0.3,1.27,1.27,0,0,1-.4-0.9,1,1,0,0,1,.4-0.9,1.27,1.27,0,0,1,.9-0.4,1.22,1.22,0,0,1,.9.4,1.27,1.27,0,0,1,.4.9,1.22,1.22,0,0,1-.4.9A1.61,1.61,0,0,1,614.3,411.6Zm0.9,15h-1.9V414.7h1.9v11.9Z"/><path class="a" d="M618.3,426.1v-2a5.43,5.43,0,0,0,3.4,1.2c1.7,0,2.5-.6,2.5-1.7a1.88,1.88,0,0,0-.2-0.8,1.7,1.7,0,0,0-.6-0.6,3.6,3.6,0,0,0-.9-0.5c-0.3-.1-0.7-0.3-1.1-0.4s-1-.4-1.4-0.6a8.65,8.65,0,0,1-1-.7,1.8,1.8,0,0,1-.6-0.9,3.73,3.73,0,0,1-.2-1.2,2.41,2.41,0,0,1,.4-1.5,4,4,0,0,1,2.5-1.8,8.81,8.81,0,0,1,1.7-.2,8.21,8.21,0,0,1,2.8.5v1.9a5.29,5.29,0,0,0-3-.9,3.08,3.08,0,0,0-1,.1,4.88,4.88,0,0,0-.7.3,1.2,1.2,0,0,0-.5.5,1.45,1.45,0,0,0-.2.7,1.88,1.88,0,0,0,.2.8,2.65,2.65,0,0,0,.5.6,2,2,0,0,0,.8.4c0.3,0.1.7,0.3,1.1,0.4s1,0.4,1.4.6a10.54,10.54,0,0,1,1.1.7,3.11,3.11,0,0,1,.7.9,2.34,2.34,0,0,1,.2,1.2,2.41,2.41,0,0,1-.4,1.5,5.24,5.24,0,0,1-1,1.1,3.39,3.39,0,0,1-1.5.6,11,11,0,0,1-1.8.2A4.32,4.32,0,0,1,618.3,426.1Z"/><path class="a" d="M631.1,424.8h0V432h-1.9V414.6h1.9v2.1h0a4.44,4.44,0,0,1,4.1-2.4,4.38,4.38,0,0,1,3.6,1.6,6.49,6.49,0,0,1,1.3,4.3,7.26,7.26,0,0,1-1.5,4.8,4.9,4.9,0,0,1-4,1.8A3.76,3.76,0,0,1,631.1,424.8Zm0-4.8v1.7a3.32,3.32,0,0,0,1,2.5,3.1,3.1,0,0,0,2.4,1,3,3,0,0,0,2.7-1.3,6.51,6.51,0,0,0,1-3.7,4.77,4.77,0,0,0-.9-3.1,2.84,2.84,0,0,0-2.5-1.1,3.42,3.42,0,0,0-2.7,1.2A4,4,0,0,0,631.1,420Z"/><path class="a" d="M645.1,426.6h-1.9V409h1.9v17.6Z"/><path class="a" d="M657.4,426.6h-1.9v-1.9h0a4,4,0,0,1-3.7,2.1,4.1,4.1,0,0,1-2.8-.9,3.17,3.17,0,0,1-1-2.5q0-3.3,3.9-3.9l3.6-.5c0-2-.8-3-2.5-3a6,6,0,0,0-3.9,1.5v-2a7.74,7.74,0,0,1,4-1.1c2.8,0,4.2,1.5,4.2,4.4v7.8h0.1Zm-1.9-6.1-2.9.4a3.37,3.37,0,0,0-2,.7,2.09,2.09,0,0,0-.7,1.7,1.68,1.68,0,0,0,.6,1.4,2.35,2.35,0,0,0,1.7.6,2.9,2.9,0,0,0,2.3-1,3.66,3.66,0,0,0,.9-2.5v-1.3h0.1Z"/><path class="a" d="M670.5,414.7L665,428.5c-1,2.5-2.3,3.7-4.1,3.7a3.73,3.73,0,0,1-1.2-.2v-1.7a5.16,5.16,0,0,0,1.1.2,2.4,2.4,0,0,0,2.2-1.7l1-2.3-4.7-11.9h2.1l3.2,9.2c0,0.1.1,0.4,0.2,0.9h0.1a5.07,5.07,0,0,1,.2-0.9l3.4-9.2h2v0.1Z"/></g><path class="a" d="M513.4,675.5v-1.3a16.59,16.59,0,0,1,.2-2.4,5.36,5.36,0,0,1,.7-1.9,9.91,9.91,0,0,1,1.1-1.7c0.4-.5,1-1,1.5-1.6s1.3-1.1,2-1.6a30,30,0,0,0,2.4-1.8,25,25,0,0,0,2.4-1.8,11.9,11.9,0,0,0,1.9-2,7.55,7.55,0,0,0,1.3-2.3,8.36,8.36,0,0,0,.5-2.9,5.82,5.82,0,0,0-1.6-4.4,6.06,6.06,0,0,0-4.4-1.6,9.46,9.46,0,0,0-3.7.8,14.56,14.56,0,0,0-3.4,2.3v-2.1a15.13,15.13,0,0,1,3.5-2,10.72,10.72,0,0,1,3.9-.7,10.07,10.07,0,0,1,3.1.5,6.08,6.08,0,0,1,2.4,1.5,5.13,5.13,0,0,1,1.5,2.3,7.29,7.29,0,0,1,.5,3,9.51,9.51,0,0,1-.6,3.5,11.74,11.74,0,0,1-1.5,2.7,12.51,12.51,0,0,1-2.3,2.3l-2.7,2.1a37.76,37.76,0,0,0-3.2,2.4,14.89,14.89,0,0,0-2.2,2.1,5.66,5.66,0,0,0-1.2,2.1,8.72,8.72,0,0,0-.4,2.5v0.3h14.1v1.7H513.4Z"/><path class="a" d="M549.9,647.4v1.9a10,10,0,0,0-4.2-1,7,7,0,0,0-3.8,1,10,10,0,0,0-2.9,2.9,13.23,13.23,0,0,0-1.8,4.5,24.93,24.93,0,0,0-.6,5.7h0.1a7.2,7.2,0,0,1,7.1-4.7,6.83,6.83,0,0,1,3.2.7,6.34,6.34,0,0,1,2.4,1.9,8.54,8.54,0,0,1,1.6,2.8,9.74,9.74,0,0,1,.6,3.4,11.65,11.65,0,0,1-.6,3.8,8.72,8.72,0,0,1-1.7,3,9,9,0,0,1-2.7,2,7.67,7.67,0,0,1-3.4.7,7.85,7.85,0,0,1-3.5-.8,7.73,7.73,0,0,1-2.6-2.5,11,11,0,0,1-1.6-4.1,23.44,23.44,0,0,1-.6-5.6,27.58,27.58,0,0,1,.7-6.7,18.86,18.86,0,0,1,2.1-5.2,10,10,0,0,1,3.5-3.3,9.13,9.13,0,0,1,4.7-1.2A12.36,12.36,0,0,1,549.9,647.4Zm-6.5,12.1a5.83,5.83,0,0,0-2.6.6,8,8,0,0,0-2.1,1.5,8.26,8.26,0,0,0-1.4,2.2,7,7,0,0,0-.5,2.5,10.59,10.59,0,0,0,.5,3.1,7.94,7.94,0,0,0,1.3,2.6,8.6,8.6,0,0,0,2,1.8,4.84,4.84,0,0,0,2.6.7,5.14,5.14,0,0,0,2.5-.6,5.26,5.26,0,0,0,2-1.6,7,7,0,0,0,1.3-2.4,10.23,10.23,0,0,0,.1-6,9,9,0,0,0-1.2-2.4,4.26,4.26,0,0,0-2-1.5A4.87,4.87,0,0,0,543.4,659.5Z"/><path class="a" d="M559,675.5a56.45,56.45,0,0,1,1.7-7.1c0.7-2.3,1.5-4.5,2.4-6.7s1.9-4.3,3-6.5,2.2-4.3,3.5-6.5h-15V647H572v0.7c-1.3,2.4-2.6,4.8-3.7,7s-2.2,4.5-3.2,6.7-1.8,4.5-2.5,6.8a56.17,56.17,0,0,0-1.6,7.1h-2v0.2Z"/><path class="a" d="M588.5,667.5v8h-1.4v-20h4.8a7.12,7.12,0,0,1,4.7,1.4,5.22,5.22,0,0,1,1.6,4.2,6.18,6.18,0,0,1-1.8,4.6,6.9,6.9,0,0,1-5.1,1.8h-2.8Zm0-10.7v9.4h2.8a5.62,5.62,0,0,0,4.1-1.3,4.9,4.9,0,0,0,1.4-3.6c0-3-1.7-4.5-5.2-4.5h-3.1Z"/><path class="a" d="M604,667.5v8h-1.4v-20h4.8a7.12,7.12,0,0,1,4.7,1.4,5.22,5.22,0,0,1,1.6,4.2,6.18,6.18,0,0,1-1.8,4.6,6.9,6.9,0,0,1-5.1,1.8H604Zm0-10.7v9.4h2.8a5.62,5.62,0,0,0,4.1-1.3,4.9,4.9,0,0,0,1.4-3.6c0-3-1.7-4.5-5.2-4.5H604Z"/><path class="a" d="M618.2,675.5v-20h1.4v20h-1.4Z"/><path class="a" d="M808.6,647.4v1.9a10,10,0,0,0-4.2-1,7,7,0,0,0-3.8,1,10,10,0,0,0-2.9,2.9,14.13,14.13,0,0,0-1.8,4.5,24.93,24.93,0,0,0-.6,5.7h0.1a7.2,7.2,0,0,1,7.1-4.7,6.83,6.83,0,0,1,3.2.7,6.34,6.34,0,0,1,2.4,1.9,8.54,8.54,0,0,1,1.6,2.8,9.74,9.74,0,0,1,.6,3.4,11.65,11.65,0,0,1-.6,3.8,7.53,7.53,0,0,1-1.8,3,9,9,0,0,1-2.7,2,7.67,7.67,0,0,1-3.4.7,7.85,7.85,0,0,1-3.5-.8,7.73,7.73,0,0,1-2.6-2.5,11,11,0,0,1-1.6-4.1,23.44,23.44,0,0,1-.6-5.6,27.58,27.58,0,0,1,.7-6.7,18.86,18.86,0,0,1,2.1-5.2,10,10,0,0,1,3.5-3.3,9.13,9.13,0,0,1,4.7-1.2A13,13,0,0,1,808.6,647.4Zm-6.6,12a5.83,5.83,0,0,0-2.6.6,8,8,0,0,0-2.1,1.5,8.26,8.26,0,0,0-1.4,2.2,7,7,0,0,0-.5,2.5,10.59,10.59,0,0,0,.5,3.1,7.94,7.94,0,0,0,1.3,2.6,8.6,8.6,0,0,0,2,1.8,5.94,5.94,0,0,0,2.6.7,5.14,5.14,0,0,0,2.5-.6,6.15,6.15,0,0,0,2-1.6,7,7,0,0,0,1.3-2.4,10.23,10.23,0,0,0,.1-6,9,9,0,0,0-1.2-2.4,4.26,4.26,0,0,0-2-1.5A5.83,5.83,0,0,0,802,659.4Z"/><path class="a" d="M843.1,675.5v-8.6a6.92,6.92,0,0,0-.8-3.8,3.25,3.25,0,0,0-2.7-1.1,3.65,3.65,0,0,0-2.9,1.5,5.58,5.58,0,0,0-1.2,3.6v8.4h-1.3v-8.7q0-4.8-3.6-4.8a3.51,3.51,0,0,0-2.9,1.5,5.77,5.77,0,0,0-1.2,3.8v8.2h-1.3V661.2h1.3v2.4h0.1a4.8,4.8,0,0,1,4.4-2.7,4.39,4.39,0,0,1,2.7.9,4.94,4.94,0,0,1,1.5,2.4,5.66,5.66,0,0,1,1.9-2.4,4.39,4.39,0,0,1,2.7-.9c3.1,0,4.7,1.9,4.7,5.8v8.8h-1.4Z"/><path class="a" d="M849.3,657.6a0.91,0.91,0,0,1-.7-0.3,1.14,1.14,0,0,1-.3-0.8,0.78,0.78,0,0,1,.3-0.7,1.08,1.08,0,0,1,.7-0.3,1.33,1.33,0,0,1,.8.3,1,1,0,0,1,.3.8,1.14,1.14,0,0,1-.3.8A1.88,1.88,0,0,1,849.3,657.6Zm-0.6,17.9V661.2H850v14.3h-1.3Z"/><path class="a" d="M854.6,675.5V654.3h1.3v21.2h-1.3Z"/><path class="a" d="M860.4,675.5V654.3h1.3v21.2h-1.3Z"/><path class="a" d="M866.9,657.6a0.91,0.91,0,0,1-.7-0.3,1.14,1.14,0,0,1-.3-0.8,0.78,0.78,0,0,1,.3-0.7,1.08,1.08,0,0,1,.7-0.3,1.33,1.33,0,0,1,.8.3,1,1,0,0,1,.3.8,1.14,1.14,0,0,1-.3.8A1.88,1.88,0,0,1,866.9,657.6Zm-0.6,17.9V661.2h1.3v14.3h-1.3Z"/><path class="a" d="M877.9,675.9a6.07,6.07,0,0,1-4.9-2.1,8,8,0,0,1-1.8-5.4,7.77,7.77,0,0,1,1.9-5.6,6.35,6.35,0,0,1,5-2,6.25,6.25,0,0,1,4.8,2,7.92,7.92,0,0,1,1.8,5.5,8,8,0,0,1-1.8,5.4A6.35,6.35,0,0,1,877.9,675.9Zm0.1-13.8a5.13,5.13,0,0,0-4,1.7,6.8,6.8,0,0,0-1.5,4.7A6.44,6.44,0,0,0,874,673a5.56,5.56,0,0,0,8,0,7.21,7.21,0,0,0,1.4-4.6,7.31,7.31,0,0,0-1.4-4.7A5.06,5.06,0,0,0,878,662.1Z"/><path class="a" d="M897.9,675.5v-8.3c0-3.4-1.2-5.1-3.7-5.1a4.33,4.33,0,0,0-3.4,1.5,5.41,5.41,0,0,0-1.3,3.7v8.2h-1.3V661.2h1.3v2.6h0.1a5.07,5.07,0,0,1,4.9-2.9,4.26,4.26,0,0,1,3.5,1.5,7,7,0,0,1,1.2,4.4v8.7h-1.3Z"/><path class="a" d="M912.7,673h0l-0.1,9.1h-1.3V661.2h1.3v2.9h0.1a4.71,4.71,0,0,1,2.2-2.4,6.93,6.93,0,0,1,3.1-.9,5,5,0,0,1,4.2,1.9,8.14,8.14,0,0,1,1.5,5.1,8.93,8.93,0,0,1-1.8,5.8,5.55,5.55,0,0,1-4.6,2.2A4.75,4.75,0,0,1,912.7,673Zm-0.1-5.3v1.8a5.49,5.49,0,0,0,1.4,3.7,4.61,4.61,0,0,0,3.6,1.5,4.25,4.25,0,0,0,3.6-1.9,8.35,8.35,0,0,0,1.4-4.9,6.49,6.49,0,0,0-1.3-4.3A3.94,3.94,0,0,0,918,662a4.78,4.78,0,0,0-3.9,1.7A5.85,5.85,0,0,0,912.6,667.7Z"/><path class="a" d="M927.9,657.6a0.91,0.91,0,0,1-.7-0.3,1.14,1.14,0,0,1-.3-0.8,0.78,0.78,0,0,1,.3-0.7,2.12,2.12,0,0,1,.7-0.3,1.33,1.33,0,0,1,.8.3,1,1,0,0,1,.3.8,1.14,1.14,0,0,1-.3.8A1.88,1.88,0,0,1,927.9,657.6Zm-0.6,17.9V661.2h1.3v14.3h-1.3Z"/><path class="a" d="M937.6,668.5l4.7,7h-1.6l-3.8-6h-0.1l-0.5.8a1.47,1.47,0,0,0-.2.4l-3.2,4.9h-1.6l4.8-7-4.7-7.3h1.5l3.2,5.1a12.65,12.65,0,0,1,.7,1.2h0.1l0.7-1.2,3.3-5.2h1.5Z"/><path class="a" d="M945.5,668.4a7,7,0,0,0,1.4,4.6,4.65,4.65,0,0,0,3.7,1.7,7.5,7.5,0,0,0,4.7-1.8v1.4a8.07,8.07,0,0,1-5,1.6,5.91,5.91,0,0,1-4.5-2,8.51,8.51,0,0,1-1.7-5.6,8.1,8.1,0,0,1,1.8-5.3,5.74,5.74,0,0,1,4.6-2.1,4.77,4.77,0,0,1,4.1,1.9,8.57,8.57,0,0,1,1.4,5.1v0.6H945.5v-0.1Zm9.3-1.1a6.85,6.85,0,0,0-1.2-3.8,3.61,3.61,0,0,0-3-1.4,4.45,4.45,0,0,0-3.3,1.3,6.36,6.36,0,0,0-1.6,3.9h9.1Z"/><path class="a" d="M959.6,675.5V654.3h1.3v21.2h-1.3Z"/><path class="a" d="M964.8,674.9v-1.5a7.68,7.68,0,0,0,1.8,1,7.42,7.42,0,0,0,1.8.4c2.2,0,3.4-.9,3.4-2.7a2,2,0,0,0-.7-1.6,11.68,11.68,0,0,0-2.4-1.4,9.08,9.08,0,0,1-2.9-1.8,3.09,3.09,0,0,1-.8-2.3,3.29,3.29,0,0,1,1.3-2.8,5.24,5.24,0,0,1,3.3-1.1,6.6,6.6,0,0,1,3.2.8v1.5a6,6,0,0,0-3.3-1,3.51,3.51,0,0,0-2.3.7,2.32,2.32,0,0,0-.9,1.9,3.1,3.1,0,0,0,.5,1.7,10.09,10.09,0,0,0,2.4,1.5,11.19,11.19,0,0,1,3.1,1.9,3,3,0,0,1,.8,2.3,3.41,3.41,0,0,1-1.3,2.8,5.42,5.42,0,0,1-3.5,1.1A11.57,11.57,0,0,1,964.8,674.9Z"/><path class="d" d="M1096.3,786.5H24.5a24.07,24.07,0,0,1-24-24V24.5a24.07,24.07,0,0,1,24-24H1096.3a24.07,24.07,0,0,1,24,24v738A24.07,24.07,0,0,1,1096.3,786.5Z"/><rect class="d" x="48.9" y="49.5" width="1024.2" height="682.8"/></svg>