<?xml version="1.0" encoding="utf-8"?>
<!-- Generator: Adobe Illustrator 19.0.0, SVG Export Plug-In . SVG Version: 6.00 Build 0)  -->
<svg version="1.1" id="Layer_1" xmlns="http://www.w3.org/2000/svg" xmlns:xlink="http://www.w3.org/1999/xlink" x="0px" y="0px"
	 viewBox="0 0 42.4 37.1" style="enable-background:new 0 0 42.4 37.1;" xml:space="preserve">
<style type="text/css">
	.st0{fill:#2378BC;}
</style>
<g id="XMLID_1_">
	<path id="XMLID_2_" class="st0" d="M34.5,14.6l8,4l-8,4l8,4L21.2,37.1L0,26.5l8-4l-8-4l8-4l-8-4L21.2,0l21.2,10.6L34.5,14.6z
		 M5.9,10.6l15.3,7.6l15.3-7.6L21.2,3L5.9,10.6z M21.2,26.2l15.3-7.6l-5-2.5l-10.3,5.1l-10.3-5.1l-5,2.5L21.2,26.2z M36.5,26.5
		l-5-2.5l-10.3,5.1L10.9,24l-5,2.5l15.3,7.6L36.5,26.5z"/>
</g>
</svg>
