<?xml version="1.0" encoding="utf-8"?>
<!-- Generator: Adobe Illustrator 19.0.0, SVG Export Plug-In . SVG Version: 6.00 Build 0)  -->
<svg version="1.1" id="Layer_1" xmlns="http://www.w3.org/2000/svg" xmlns:xlink="http://www.w3.org/1999/xlink" x="0px" y="0px"
	 viewBox="0 0 47.8 48.5" style="enable-background:new 0 0 47.8 48.5;" xml:space="preserve">
<style type="text/css">
	.st0{fill:#2378BC;}
	.st1{fill:none;stroke:#2378BC;stroke-width:1.5;stroke-miterlimit:10;}
</style>
<g id="XMLID_1506_">
	<g id="XMLID_14_">
		<path id="XMLID_15_" class="st0" d="M28.1,23.5c0,0.4-0.1,0.8-0.3,1.1c-0.2,0.3-0.5,0.6-0.8,0.8S26.4,25.9,26,26
			c-0.4,0.1-0.8,0.2-1.1,0.2c-0.4,0-0.8-0.1-1.1-0.2s-0.8-0.3-1.1-0.5c-0.3-0.2-0.6-0.5-0.8-0.8c-0.2-0.3-0.3-0.7-0.3-1.1
			c0-0.4,0.1-0.8,0.3-1.1c0.2-0.3,0.5-0.6,0.8-0.8c0.3-0.2,0.7-0.4,1.1-0.5c0.4-0.1,0.8-0.2,1.1-0.2c0.4,0,0.7,0,1,0.1
			c0.3,0.1,0.7,0.2,1,0.4V11.3l-9.3,2.3v12.6c0,0.4-0.1,0.8-0.3,1.1c-0.2,0.3-0.5,0.6-0.8,0.8c-0.3,0.2-0.7,0.4-1.1,0.5
			s-0.8,0.2-1.1,0.2c-0.4,0-0.8-0.1-1.1-0.2c-0.4-0.1-0.8-0.3-1.1-0.5s-0.6-0.5-0.8-0.8c-0.2-0.3-0.3-0.7-0.3-1.1
			c0-0.4,0.1-0.8,0.3-1.1c0.2-0.3,0.5-0.6,0.8-0.8s0.7-0.4,1.1-0.5c0.4-0.1,0.8-0.2,1.1-0.2c0.4,0,0.7,0,1,0.1
			c0.3,0.1,0.7,0.2,1,0.4V12.6l11.9-3V23.5z M14.2,27.5c0.2,0,0.4,0,0.6-0.1c0.2-0.1,0.4-0.1,0.6-0.2c0.2-0.1,0.4-0.2,0.5-0.4
			c0.1-0.2,0.2-0.4,0.2-0.6c0-0.2-0.1-0.4-0.2-0.6c-0.1-0.2-0.3-0.3-0.5-0.4c-0.2-0.1-0.4-0.2-0.6-0.2c-0.2-0.1-0.4-0.1-0.6-0.1
			c-0.2,0-0.4,0-0.6,0.1c-0.2,0.1-0.4,0.1-0.6,0.2s-0.4,0.2-0.5,0.4c-0.1,0.2-0.2,0.4-0.2,0.6c0,0.2,0.1,0.4,0.2,0.6
			s0.3,0.3,0.5,0.4s0.4,0.2,0.6,0.2C13.8,27.5,14,27.5,14.2,27.5z M24.8,24.8c0.2,0,0.4,0,0.6-0.1s0.4-0.1,0.6-0.2
			c0.2-0.1,0.4-0.2,0.5-0.4c0.1-0.2,0.2-0.4,0.2-0.6c0-0.2-0.1-0.4-0.2-0.6c-0.1-0.2-0.3-0.3-0.5-0.4c-0.2-0.1-0.4-0.2-0.6-0.2
			c-0.2-0.1-0.4-0.1-0.6-0.1c-0.2,0-0.4,0-0.6,0.1c-0.2,0.1-0.4,0.1-0.6,0.2s-0.4,0.2-0.5,0.4c-0.1,0.2-0.2,0.4-0.2,0.6
			c0,0.2,0.1,0.4,0.2,0.6c0.1,0.2,0.3,0.3,0.5,0.4s0.4,0.2,0.6,0.2C24.4,24.8,24.6,24.8,24.8,24.8z"/>
	</g>
	<rect id="XMLID_1507_" x="0.8" y="0.8" class="st1" width="38" height="38"/>
</g>
<polyline id="XMLID_1505_" class="st1" points="42.9,13.4 42.9,43.6 9.5,43.6 "/>
<polyline id="XMLID_1504_" class="st1" points="47,17.6 47,47.8 13.6,47.8 "/>
</svg>
