<?xml version="1.0" encoding="utf-8"?>
<!-- Generator: Adobe Illustrator 19.0.0, SVG Export Plug-In . SVG Version: 6.00 Build 0)  -->
<svg version="1.1" id="Layer_1" xmlns="http://www.w3.org/2000/svg" xmlns:xlink="http://www.w3.org/1999/xlink" x="0px" y="0px"
	 viewBox="0 0 46 33.7" style="enable-background:new 0 0 46 33.7;" xml:space="preserve">
<style type="text/css">
	.st0{fill:#2378BC;}
</style>
<g id="XMLID_6_">
	<path id="XMLID_7_" class="st0" d="M46,27.6H24.5v3.1h6.1v3.1H15.3v-3.1h6.1v-3.1H0V0h46V27.6z M3.1,3.1v21.5h39.8V3.1H3.1z"/>
</g>
<g id="XMLID_1_">
	<path id="XMLID_2_" class="st0" d="M13.5,21.2v-0.7c0-0.4,0-0.8,0.1-1.2c0.1-0.3,0.2-0.7,0.3-1c0.1-0.3,0.3-0.6,0.5-0.8
		c0.2-0.3,0.5-0.5,0.8-0.8c0.3-0.3,0.6-0.5,1-0.8s0.8-0.6,1.2-0.9c0.4-0.3,0.8-0.6,1.2-0.9c0.4-0.3,0.7-0.6,1-1
		c0.3-0.3,0.5-0.7,0.6-1.1c0.2-0.4,0.2-0.9,0.2-1.4c0-0.9-0.3-1.6-0.8-2.1c-0.5-0.5-1.2-0.8-2.1-0.8c-0.6,0-1.2,0.1-1.8,0.4
		S14.6,8.9,14,9.4v-1c0.5-0.4,1.1-0.7,1.7-1C16.4,7.2,17,7,17.7,7c0.6,0,1.1,0.1,1.5,0.3C19.6,7.5,20,7.7,20.3,8s0.6,0.7,0.7,1.1
		c0.2,0.4,0.3,0.9,0.3,1.5c0,0.6-0.1,1.2-0.3,1.7c-0.2,0.5-0.4,0.9-0.8,1.3c-0.3,0.4-0.7,0.8-1.1,1.1c-0.4,0.3-0.9,0.7-1.3,1
		c-0.6,0.4-1.2,0.8-1.6,1.2s-0.8,0.7-1.1,1c-0.3,0.3-0.5,0.7-0.6,1c-0.1,0.3-0.2,0.8-0.2,1.2v0.1h6.9v0.8H13.5z"/>
	<path id="XMLID_4_" class="st0" d="M32.1,21.2l-3.2-5.3c-0.2-0.3-0.4-0.7-0.5-1h0c-0.2,0.4-0.4,0.7-0.6,1l-3.3,5.3h-1.2l4.4-7
		l-4.1-6.9h1.2l3.1,5.2c0.2,0.3,0.3,0.6,0.5,0.9h0l0.5-0.9l3.1-5.2h1.1L29,14.2l4.3,7H32.1z"/>
</g>
</svg>
