<?xml version="1.0" encoding="utf-8"?>
<!-- Generator: Adobe Illustrator 19.0.0, SVG Export Plug-In . SVG Version: 6.00 Build 0)  -->
<svg version="1.1" id="Layer_1" xmlns="http://www.w3.org/2000/svg" xmlns:xlink="http://www.w3.org/1999/xlink" x="0px" y="0px"
	 viewBox="0 0 43.2 50.3" style="enable-background:new 0 0 43.2 50.3;" xml:space="preserve">
<style type="text/css">
	.st0{fill:#2378BC;}
	.st1{fill:none;stroke:#2378BC;stroke-width:1.5;stroke-linejoin:bevel;stroke-miterlimit:10;}
</style>
<g id="XMLID_1504_">
	<g id="XMLID_15_">
		<path id="XMLID_16_" class="st0" d="M34.8,14.6l8,4l-8,4l8,4L21.5,37.1L0.3,26.5l8-4l-8-4l8-4l-8-4L21.5,0l21.2,10.6L34.8,14.6z
			 M6.3,10.6l15.3,7.6l15.3-7.6L21.5,3L6.3,10.6z M21.5,26.2l15.3-7.6l-5-2.5l-10.3,5.1l-10.3-5.1l-5,2.5L21.5,26.2z M36.8,26.5
			l-5-2.5l-10.3,5.1L11.2,24l-5,2.5l15.3,7.6L36.8,26.5z"/>
	</g>
	<polyline id="XMLID_1139_" class="st1" points="0.3,32.4 21.5,43 42.8,31.6 	"/>
	<polyline id="XMLID_1140_" class="st1" points="0.3,39 21.5,49.6 42.8,38.2 	"/>
</g>
</svg>
