<?xml version="1.0" encoding="utf-8"?>
<!-- Generator: Adobe Illustrator 19.2.1, SVG Export Plug-In . SVG Version: 6.00 Build 0)  -->
<svg version="1.1" id="Layer_1" xmlns="http://www.w3.org/2000/svg" xmlns:xlink="http://www.w3.org/1999/xlink" x="0px" y="0px"
	 viewBox="0 0 60.4 63.3" style="enable-background:new 0 0 60.4 63.3;" xml:space="preserve">
<style type="text/css">
	.st0{fill:#FFFFFF;}
	.st1{fill:#682A7A;}
</style>
<g>
	<g>
		<g>
			<g>
				<path class="st0" d="M60.4,12.9h-6.2v-2.1c0-0.7-1.4-2.1-2.1-2.1H39.6v45.8h12.5c0.7,0,2.1-1.4,2.1-2.1V23.3h6.2V12.9z"/>
				<rect x="56.2" y="25.4" class="st0" width="4.2" height="10.4"/>
				<rect x="56.2" y="37.9" class="st0" width="4.2" height="10.4"/>
			</g>
			<rect x="39.6" y="15" class="st1" width="10.4" height="2.1"/>
			<rect x="39.6" y="21.2" class="st1" width="10.4" height="2.1"/>
			<rect x="39.6" y="40" class="st1" width="10.4" height="2.1"/>
			<rect x="39.6" y="46.2" class="st1" width="10.4" height="2.1"/>
			<rect x="39.6" y="27.5" class="st1" width="10.4" height="2.1"/>
			<rect x="39.6" y="33.7" class="st1" width="10.4" height="2.1"/>
			<polygon class="st0" points="37.5,0 0,8.6 0,54.6 37.5,63.3 			"/>
			<path class="st1" d="M29,18.5l-5.2,0.3V33c0,0.4,0,0.8,0,1.2c0,0.4,0,0.7,0,1c0,0.3,0,0.6,0,0.8c0,0.2,0,0.4,0.1,0.6l-0.1,0
				c-0.1-0.2-0.2-0.4-0.3-0.6c-0.1-0.2-0.2-0.4-0.3-0.6c-0.1-0.2-0.2-0.3-0.3-0.5c-0.1-0.2-0.2-0.3-0.3-0.4l-9-15.1l-5.2,0.3v24.1
				l4.3,0.2V30.4c0-0.4,0-0.8,0-1.2c0-0.4,0-0.7,0-1.1c0-0.3,0-0.6,0-0.9c0-0.3,0.1-0.5,0.1-0.8l0.1,0c0.1,0.1,0.1,0.3,0.2,0.4
				c0.1,0.1,0.2,0.3,0.3,0.5c0.1,0.2,0.2,0.3,0.3,0.5c0.1,0.2,0.2,0.4,0.4,0.6l9.4,16.1l5.5,0.3V18.5"/>
		</g>
	</g>
</g>
</svg>
