<?xml version="1.0" encoding="utf-8"?>
<!-- Generator: Adobe Illustrator 19.0.0, SVG Export Plug-In . SVG Version: 6.00 Build 0)  -->
<svg version="1.1" id="Layer_1" xmlns="http://www.w3.org/2000/svg" xmlns:xlink="http://www.w3.org/1999/xlink" x="0px" y="0px"
	 viewBox="0 0 33.4 41.1" style="enable-background:new 0 0 33.4 41.1;" xml:space="preserve">
<style type="text/css">
	.st0{fill:#2378BC;}
</style>
<g id="XMLID_1_">
	<path id="XMLID_2_" class="st0" d="M33.4,10.3v25.7c0,0.7-0.1,1.4-0.4,2s-0.6,1.2-1.1,1.6c-0.5,0.5-1,0.8-1.6,1.1
		c-0.6,0.3-1.3,0.4-2,0.4H5.1c-0.7,0-1.4-0.1-2-0.4C2.5,40.4,2,40,1.5,39.6c-0.5-0.5-0.8-1-1.1-1.6c-0.3-0.6-0.4-1.3-0.4-2V10.3h5.1
		V7.7c0-1.1,0.2-2.1,0.6-3c0.4-0.9,1-1.8,1.7-2.4C8.1,1.6,8.9,1,9.8,0.6c0.9-0.4,1.9-0.6,3-0.6c1.4,0,2.7,0.3,3.9,1
		c1.2-0.7,2.5-1,3.8-1c1.1,0,2.1,0.2,3,0.6c0.9,0.4,1.8,1,2.4,1.7c0.7,0.7,1.2,1.5,1.7,2.4c0.4,0.9,0.6,1.9,0.6,3v2.6H33.4z
		 M23.8,38.5c-0.5-0.8-0.7-1.7-0.7-2.6V12.8H2.6v23.1c0,0.4,0.1,0.7,0.2,1s0.3,0.6,0.6,0.8c0.2,0.2,0.5,0.4,0.8,0.6s0.6,0.2,1,0.2
		H23.8z M7.7,10.3H18V7.7c0-0.7-0.1-1.4-0.4-2c-0.3-0.6-0.6-1.2-1.1-1.6c-0.5-0.5-1-0.8-1.6-1.1c-0.6-0.3-1.3-0.4-2-0.4
		c-0.7,0-1.4,0.1-2,0.4c-0.6,0.3-1.2,0.6-1.6,1.1c-0.5,0.5-0.8,1-1.1,1.6S7.7,7,7.7,7.7V10.3z M25.7,7.7c0-0.7-0.1-1.4-0.4-2
		c-0.3-0.6-0.6-1.2-1.1-1.6c-0.5-0.5-1-0.8-1.6-1.1c-0.6-0.3-1.3-0.4-2-0.4c-0.6,0-1.2,0.1-1.7,0.3c0.5,0.6,0.8,1.2,1.1,1.8
		c0.2,0.6,0.4,1.2,0.5,1.7c0.1,0.6,0.1,1.2,0.1,1.8c0,0.6,0,1.3,0,2.1h5.1V7.7z M30.8,12.8h-5.1v23.1c0,0.4,0.1,0.7,0.2,1
		s0.3,0.6,0.6,0.8c0.2,0.2,0.5,0.4,0.8,0.6s0.6,0.2,1,0.2s0.7-0.1,1-0.2s0.6-0.3,0.8-0.6c0.2-0.2,0.4-0.5,0.6-0.8
		c0.1-0.3,0.2-0.6,0.2-1V12.8z"/>
</g>
</svg>
