<?xml version="1.0" encoding="utf-8"?>
<!-- Generator: Adobe Illustrator 19.2.1, SVG Export Plug-In . SVG Version: 6.00 Build 0)  -->
<svg version="1.1" id="Layer_1" xmlns="http://www.w3.org/2000/svg" xmlns:xlink="http://www.w3.org/1999/xlink" x="0px" y="0px"
	 viewBox="0 0 116.2 25.5" enable-background="new 0 0 116.2 25.5" xml:space="preserve">
<g>
	<g>
		<path fill="#FFFFFF" d="M53,5.1l-4.3,15.3h-2.1L43.5,9.2c-0.1-0.4-0.2-0.9-0.2-1.5h0c-0.1,0.5-0.2,1-0.3,1.5l-3.2,11.2h-2.1
			L33.2,5.1h2l3.2,11.7c0.1,0.5,0.2,1,0.3,1.5h0c0-0.4,0.1-0.9,0.3-1.5l3.4-11.7h1.7l3.2,11.8c0.1,0.4,0.2,0.9,0.3,1.4h0
			c0-0.4,0.1-0.9,0.3-1.5l3.1-11.7H53z"/>
		<path fill="#FFFFFF" d="M56.5,5.9c0,0.3-0.1,0.6-0.3,0.8c-0.2,0.2-0.5,0.3-0.8,0.3c-0.3,0-0.6-0.1-0.8-0.3
			c-0.2-0.2-0.3-0.5-0.3-0.8c0-0.3,0.1-0.6,0.3-0.8c0.2-0.2,0.5-0.3,0.8-0.3c0.3,0,0.6,0.1,0.8,0.3C56.4,5.3,56.5,5.6,56.5,5.9z
			 M56.2,20.4h-1.7V9.5h1.7V20.4z"/>
		<path fill="#FFFFFF" d="M67.9,20.4h-1.7v-6.2c0-2.3-0.8-3.5-2.5-3.5c-0.9,0-1.6,0.3-2.2,1c-0.6,0.6-0.9,1.5-0.9,2.5v6.2h-1.7V9.5
			h1.7v1.8h0c0.8-1.4,2-2.1,3.6-2.1c1.2,0,2.1,0.4,2.7,1.2c0.6,0.8,0.9,1.9,0.9,3.3V20.4z"/>
		<path fill="#FFFFFF" d="M80,20.4h-1.7v-1.9h0c-0.8,1.4-2.1,2.1-3.7,2.1c-1.4,0-2.5-0.5-3.3-1.5c-0.8-1-1.2-2.3-1.2-4
			c0-1.8,0.5-3.3,1.4-4.3c0.9-1.1,2.1-1.6,3.6-1.6c1.5,0,2.6,0.6,3.3,1.8h0V4.3H80V20.4z M78.2,15.5v-1.6c0-0.9-0.3-1.6-0.9-2.2
			c-0.6-0.6-1.3-0.9-2.2-0.9c-1,0-1.9,0.4-2.5,1.2c-0.6,0.8-0.9,1.9-0.9,3.2c0,1.2,0.3,2.2,0.9,3c0.6,0.7,1.4,1.1,2.4,1.1
			c1,0,1.7-0.3,2.4-1C77.9,17.4,78.2,16.5,78.2,15.5z"/>
		<path fill="#FFFFFF" d="M92.9,14.9c0,1.7-0.5,3.1-1.5,4.2c-1,1.1-2.3,1.6-4,1.6c-1.6,0-2.9-0.5-3.9-1.5c-1-1-1.4-2.4-1.4-4
			c0-1.8,0.5-3.2,1.5-4.3c1-1,2.3-1.6,4.1-1.6c1.6,0,2.9,0.5,3.8,1.5C92.4,11.8,92.9,13.1,92.9,14.9z M91.1,15
			c0-1.4-0.3-2.4-0.9-3.2c-0.6-0.7-1.5-1.1-2.6-1.1c-1.1,0-2,0.4-2.7,1.1c-0.7,0.7-1,1.8-1,3.2c0,1.3,0.3,2.3,1,3.1
			c0.7,0.7,1.5,1.1,2.7,1.1c1.1,0,2-0.4,2.6-1.1C90.8,17.4,91.1,16.3,91.1,15z"/>
		<path fill="#FFFFFF" d="M108.8,9.5l-3.3,10.9h-1.8l-2.2-7.8c-0.1-0.3-0.1-0.6-0.2-1h0c0,0.2-0.1,0.6-0.2,1l-2.4,7.8h-1.7L93.5,9.5
			h1.8l2.2,8.2c0.1,0.3,0.1,0.6,0.1,1h0.1c0-0.3,0.1-0.6,0.2-1l2.5-8.2h1.6l2.3,8.2c0.1,0.3,0.1,0.6,0.1,1h0.1c0-0.3,0.1-0.7,0.2-1
			l2.2-8.2H108.8z"/>
		<path fill="#FFFFFF" d="M116.2,17.5c0,0.9-0.4,1.7-1.1,2.3c-0.7,0.6-1.7,0.9-2.9,0.9c-1,0-1.9-0.2-2.7-0.7v-1.9
			c0.9,0.7,1.8,1,2.8,1c1.4,0,2.1-0.5,2.1-1.5c0-0.4-0.1-0.7-0.4-1c-0.3-0.3-0.9-0.6-1.8-1c-1-0.4-1.6-0.9-2-1.3
			c-0.4-0.5-0.6-1.1-0.6-1.9c0-0.9,0.4-1.7,1.1-2.3c0.7-0.6,1.6-0.9,2.8-0.9c0.9,0,1.6,0.2,2.3,0.5v1.8c-0.7-0.5-1.5-0.8-2.5-0.8
			c-0.6,0-1,0.1-1.4,0.4c-0.4,0.3-0.5,0.6-0.5,1.1c0,0.5,0.1,0.9,0.4,1.1c0.3,0.3,0.8,0.6,1.7,0.9c1,0.4,1.8,0.9,2.2,1.4
			C116,16.1,116.2,16.7,116.2,17.5z"/>
	</g>
	<g>
		<polygon fill="#FFFFFF" points="11.4,12.5 25.5,12.5 25.5,0 11.4,2 		"/>
		<polygon fill="#FFFFFF" points="10.8,12.5 10.8,2.1 0,3.6 0,12.5 		"/>
		<polygon fill="#FFFFFF" points="10.8,13.1 0,13.1 0,22 10.8,23.5 		"/>
		<polygon fill="#FFFFFF" points="11.4,13.1 11.4,23.6 25.5,25.5 25.5,13.1 		"/>
	</g>
</g>
</svg>
