<?xml version="1.0" encoding="utf-8"?>
<!-- Generator: Adobe Illustrator 19.0.0, SVG Export Plug-In . SVG Version: 6.00 Build 0)  -->
<svg version="1.1" xmlns="http://www.w3.org/2000/svg" xmlns:xlink="http://www.w3.org/1999/xlink" x="0px" y="0px"
	 viewBox="0 0 1120.8 787" style="enable-background:new 0 0 1120.8 787;" xml:space="preserve">
<style type="text/css">
	.st0{fill:#FFFFFF;}
	.st1{fill:none;stroke:#FFFFFF;stroke-width:2;stroke-miterlimit:10;}
	.st2{opacity:0.8;}
	.st3{fill:none;stroke:#FFFFFF;stroke-miterlimit:10;}
</style>
<g id="Layer_2">
</g>
<g id="Layer_1">
	<g id="XMLID_1269_">
		<g id="XMLID_12_">
			<g id="XMLID_128_">
				<path id="XMLID_138_" class="st0" d="M514,324.6v52.9h-3.3v-47.6c-1.7,1.6-3.6,3-5.7,4.1c-2.1,1.2-4.5,2.2-7,3.1v-3
					c1.5-0.5,2.9-1.1,4.2-1.7c1.3-0.6,2.5-1.3,3.7-2.1c1.2-0.8,2.3-1.6,3.5-2.5c1.1-0.9,2.3-1.9,3.4-3H514z"/>
				<path id="XMLID_136_" class="st0" d="M525.5,375.6v-3.8c3.9,2.3,7.7,3.5,11.1,3.5c4.2,0,7.4-1.1,9.8-3.2
					c2.4-2.1,3.5-4.9,3.5-8.3c0-3.8-1.4-6.7-4.1-8.7s-6.6-3-11.6-3h-4v-3h3.5c4.6,0,8.1-1,10.5-2.9c2.4-2,3.6-4.7,3.6-8.3
					c0-3.1-0.9-5.5-2.6-7.3c-1.8-1.8-4.3-2.6-7.7-2.6c-3.2,0-6.6,1.1-10.2,3.4v-3.5c3.9-1.9,7.5-2.9,10.7-2.9c4.1,0,7.3,1.1,9.7,3.3
					c2.4,2.2,3.6,5.1,3.6,8.8c0,7-3.4,11.4-10.1,13.3v0.1c3.6,0.4,6.5,1.7,8.7,4c2.2,2.3,3.2,5.2,3.2,8.8c0,4.5-1.6,8.2-4.7,10.9
					c-3.1,2.8-7.2,4.1-12.1,4.1C532.7,378.3,529,377.4,525.5,375.6z"/>
				<path id="XMLID_134_" class="st0" d="M567.6,378.1c-0.8,0-1.5-0.3-2.1-0.8c-0.6-0.6-0.8-1.3-0.8-2.1c0-0.8,0.3-1.5,0.8-2.1
					c0.6-0.5,1.2-0.8,2.1-0.8s1.5,0.3,2.1,0.8c0.6,0.5,0.9,1.2,0.9,2.1c0,0.8-0.3,1.5-0.9,2.1C569.1,377.8,568.4,378.1,567.6,378.1z
					"/>
				<path id="XMLID_132_" class="st0" d="M581.6,376.4v-3.8c3.3,1.8,6.6,2.7,9.9,2.7c4.2,0,7.5-1.2,9.9-3.5c2.4-2.3,3.6-5.4,3.6-9.3
					c0-8.4-4.8-12.6-14.4-12.6c-2.2,0-4.6,0.1-7.4,0.4l1.5-24.6h21.5v3h-18.6l-1.2,18.4c2.5-0.2,4.3-0.3,5.3-0.3
					c5.5,0,9.6,1.3,12.4,4c2.8,2.7,4.2,6.4,4.2,11.2c0,4.8-1.5,8.7-4.5,11.8c-3,3-7.2,4.5-12.8,4.5
					C587.5,378.3,584.3,377.7,581.6,376.4z"/>
				<path id="XMLID_129_" class="st0" d="M620.5,341.9h-2.6l4.5-16.2h3.7L620.5,341.9z M629.6,341.9h-2.7l4.4-16.2h3.9L629.6,341.9z
					"/>
			</g>
		</g>
		<path id="XMLID_898_" class="st1" d="M1094.6,779.5H26.6c-11,0-20-9-20-20V25.7c0-11,9-20,20-20h1068c11,0,20,9,20,20v733.7
			C1114.6,770.5,1105.6,779.5,1094.6,779.5z"/>
		<g id="XMLID_21_">
			<path id="XMLID_88_" class="st0" d="M161,674.5v-2.1c2.2,1.3,4.2,1.9,6.1,1.9c2.3,0,4.1-0.6,5.4-1.8c1.3-1.2,1.9-2.7,1.9-4.6
				c0-2.1-0.7-3.7-2.2-4.8c-1.5-1.1-3.6-1.6-6.3-1.6h-2.2V660h1.9c2.5,0,4.5-0.5,5.8-1.6c1.3-1.1,2-2.6,2-4.6c0-1.7-0.5-3-1.4-4
				c-1-1-2.4-1.5-4.2-1.5c-1.8,0-3.6,0.6-5.6,1.9v-1.9c2.1-1.1,4.1-1.6,5.9-1.6c2.2,0,4,0.6,5.3,1.8c1.3,1.2,2,2.8,2,4.8
				c0,3.8-1.8,6.3-5.5,7.3v0.1c2,0.2,3.6,0.9,4.7,2.2c1.2,1.3,1.8,2.9,1.8,4.8c0,2.5-0.9,4.5-2.6,6c-1.7,1.5-3.9,2.3-6.7,2.3
				C165,676,163,675.5,161,674.5z"/>
			<path id="XMLID_90_" class="st0" d="M184.1,658.1c-0.4,0-0.8-0.2-1.1-0.5c-0.3-0.3-0.5-0.7-0.5-1.1c0-0.4,0.2-0.8,0.5-1.1
				c0.3-0.3,0.7-0.4,1.1-0.4c0.4,0,0.8,0.1,1.1,0.4c0.3,0.3,0.5,0.7,0.5,1.1c0,0.4-0.2,0.8-0.5,1.1S184.6,658.1,184.1,658.1z
				 M184.1,675.9c-0.4,0-0.8-0.2-1.1-0.5c-0.3-0.3-0.5-0.7-0.5-1.1c0-0.5,0.2-0.8,0.5-1.1c0.3-0.3,0.7-0.4,1.1-0.4
				c0.4,0,0.8,0.1,1.1,0.4s0.5,0.7,0.5,1.1c0,0.4-0.2,0.8-0.5,1.1S184.6,675.9,184.1,675.9z"/>
			<path id="XMLID_93_" class="st0" d="M190.5,675.5v-1.3c0-0.9,0.1-1.7,0.2-2.4c0.1-0.7,0.4-1.4,0.7-1.9c0.3-0.6,0.7-1.2,1.1-1.7
				c0.4-0.5,1-1,1.5-1.6c0.6-0.5,1.3-1.1,2-1.6c0.7-0.5,1.6-1.1,2.4-1.8c0.9-0.6,1.7-1.2,2.4-1.8c0.7-0.6,1.4-1.3,1.9-2
				c0.6-0.7,1-1.5,1.3-2.3s0.5-1.8,0.5-2.9c0-1.9-0.5-3.3-1.6-4.4c-1-1-2.5-1.6-4.4-1.6c-1.3,0-2.5,0.3-3.7,0.8
				c-1.2,0.6-2.3,1.3-3.4,2.3v-2.1c1.1-0.8,2.2-1.5,3.5-2c1.3-0.5,2.6-0.7,3.9-0.7c1.1,0,2.2,0.2,3.1,0.5c0.9,0.3,1.7,0.8,2.4,1.5
				c0.7,0.6,1.2,1.4,1.5,2.3c0.4,0.9,0.5,1.9,0.5,3c0,1.3-0.2,2.5-0.6,3.5c-0.4,1-0.9,1.9-1.5,2.7c-0.6,0.8-1.4,1.6-2.3,2.3
				c-0.9,0.7-1.8,1.4-2.7,2.1c-1.3,0.9-2.4,1.7-3.2,2.4c-0.9,0.7-1.6,1.4-2.2,2.1c-0.6,0.7-1,1.4-1.2,2.1c-0.2,0.7-0.4,1.5-0.4,2.5
				v0.3h14.1v1.7H190.5z"/>
			<path id="XMLID_95_" class="st0" d="M231.4,675.5v-2.9h-0.1c-0.5,1-1.1,1.8-2,2.3c-0.9,0.6-1.8,0.9-2.9,0.9
				c-1.4,0-2.4-0.4-3.2-1.1c-0.8-0.8-1.2-1.7-1.2-2.9c0-2.5,1.7-4,5-4.5l4.4-0.7c0-3.1-1.2-4.6-3.5-4.6c-1.6,0-3.1,0.6-4.6,1.9v-1.5
				c0.5-0.4,1.2-0.8,2.2-1.1c0.9-0.3,1.8-0.4,2.6-0.4c1.5,0,2.6,0.5,3.4,1.4c0.8,0.9,1.2,2.2,1.2,4v9.3H231.4z M227.5,668.4
				c-1.5,0.2-2.5,0.6-3.2,1c-0.6,0.5-0.9,1.3-0.9,2.3c0,0.8,0.3,1.5,0.8,2.1c0.6,0.5,1.3,0.8,2.4,0.8c1.4,0,2.5-0.5,3.4-1.5
				c0.9-1,1.4-2.3,1.4-3.9v-1.4L227.5,668.4z"/>
			<path id="XMLID_98_" class="st0" d="M236.2,674.9v-1.5c0.5,0.4,1.1,0.7,1.8,1c0.7,0.2,1.3,0.4,1.8,0.4c2.2,0,3.4-0.9,3.4-2.7
				c0-0.6-0.2-1.2-0.7-1.6c-0.5-0.4-1.3-0.9-2.4-1.4c-1.4-0.6-2.3-1.2-2.9-1.8c-0.6-0.6-0.8-1.4-0.8-2.3c0-1.2,0.4-2.1,1.3-2.8
				c0.9-0.7,2-1.1,3.3-1.1c1.2,0,2.3,0.3,3.2,0.8v1.5c-1.1-0.7-2.2-1-3.3-1c-0.9,0-1.7,0.2-2.3,0.7c-0.6,0.5-0.9,1.1-0.9,1.9
				c0,0.7,0.2,1.2,0.5,1.7c0.4,0.4,1.2,0.9,2.4,1.5c1.5,0.7,2.5,1.3,3.1,1.9c0.6,0.6,0.8,1.3,0.8,2.3c0,1.1-0.4,2.1-1.3,2.8
				c-0.9,0.7-2,1.1-3.5,1.1C238.3,675.9,237.2,675.5,236.2,674.9z"/>
			<path id="XMLID_100_" class="st0" d="M249.4,673L249.4,673l-0.1,9.1h-1.3v-20.9h1.3v2.9h0.1c0.5-1.1,1.2-1.9,2.2-2.4
				s2-0.9,3.1-0.9c1.8,0,3.2,0.6,4.2,1.9s1.5,3,1.5,5.1c0,2.4-0.6,4.3-1.8,5.8s-2.7,2.2-4.6,2.2C252,675.9,250.4,674.9,249.4,673z
				 M249.4,667.7v1.8c0,1.4,0.5,2.7,1.4,3.7c0.9,1,2.1,1.5,3.6,1.5c1.5,0,2.6-0.6,3.6-1.9c0.9-1.3,1.4-2.9,1.4-4.9
				c0-1.8-0.4-3.2-1.3-4.3c-0.8-1.1-2-1.6-3.3-1.6c-1.7,0-3,0.6-3.9,1.7C249.8,664.8,249.4,666.2,249.4,667.7z"/>
			<path id="XMLID_103_" class="st0" d="M264.4,668.4c0,2,0.5,3.5,1.4,4.6c0.9,1.1,2.2,1.7,3.7,1.7c1.6,0,3.2-0.6,4.7-1.8v1.4
				c-1.5,1.1-3.1,1.6-5,1.6c-1.8,0-3.3-0.7-4.5-2c-1.1-1.3-1.7-3.2-1.7-5.6c0-2.1,0.6-3.8,1.8-5.3c1.2-1.4,2.7-2.1,4.6-2.1
				c1.8,0,3.1,0.6,4.1,1.9c0.9,1.2,1.4,2.9,1.4,5.1v0.6H264.4z M273.6,667.3c-0.1-1.6-0.5-2.9-1.2-3.8c-0.7-0.9-1.7-1.4-3-1.4
				c-1.3,0-2.4,0.4-3.3,1.3c-0.9,0.9-1.4,2.2-1.6,3.9H273.6z"/>
			<path id="XMLID_106_" class="st0" d="M287.8,674.9c-1.1,0.7-2.3,1-3.8,1c-1.9,0-3.5-0.7-4.7-2s-1.8-3.1-1.8-5.2
				c0-2.3,0.7-4.1,2-5.6s3.1-2.2,5.2-2.2c1.1,0,2.1,0.2,3.2,0.7v1.5c-1-0.6-2.1-0.9-3.4-0.9c-1.7,0-3,0.6-4.1,1.8s-1.6,2.8-1.6,4.7
				c0,1.9,0.5,3.3,1.4,4.5s2.2,1.7,3.8,1.7c1.4,0,2.7-0.4,3.7-1.1V674.9z"/>
			<path id="XMLID_108_" class="st0" d="M296.8,675.3c-0.7,0.3-1.3,0.5-1.9,0.5c-2.1,0-3.2-1.3-3.2-3.8v-9.6h-2.6v-1.2h2.6v-3.7
				c0.2-0.1,0.4-0.1,0.6-0.2c0.2-0.1,0.4-0.1,0.6-0.2v4.1h3.8v1.2h-3.8v9.4c0,1,0.2,1.7,0.5,2.1c0.3,0.4,0.8,0.7,1.6,0.7
				c0.5,0,1.1-0.2,1.7-0.5V675.3z"/>
			<path id="XMLID_110_" class="st0" d="M314.3,662.6c-0.4-0.3-0.9-0.5-1.5-0.5c-1.1,0-2.1,0.6-2.8,1.7c-0.8,1.2-1.1,2.8-1.1,5v6.7
				h-1.3v-14.3h1.3v3.2h0.1c0.3-1.1,0.8-1.9,1.5-2.5c0.7-0.6,1.5-0.9,2.5-0.9c0.5,0,1,0.1,1.4,0.3V662.6z"/>
			<path id="XMLID_112_" class="st0" d="M325.5,675.5v-2.9h-0.1c-0.5,1-1.1,1.8-2,2.3c-0.9,0.6-1.8,0.9-2.9,0.9
				c-1.4,0-2.4-0.4-3.2-1.1s-1.2-1.7-1.2-2.9c0-2.5,1.7-4,5-4.5l4.4-0.7c0-3.1-1.2-4.6-3.5-4.6c-1.6,0-3.1,0.6-4.6,1.9v-1.5
				c0.5-0.4,1.2-0.8,2.2-1.1c0.9-0.3,1.8-0.4,2.6-0.4c1.5,0,2.6,0.5,3.4,1.4c0.8,0.9,1.2,2.2,1.2,4v9.3H325.5z M321.6,668.4
				c-1.5,0.2-2.5,0.6-3.2,1c-0.6,0.5-0.9,1.3-0.9,2.3c0,0.8,0.3,1.5,0.8,2.1c0.6,0.5,1.3,0.8,2.4,0.8c1.4,0,2.5-0.5,3.4-1.5
				c0.9-1,1.4-2.3,1.4-3.9v-1.4L321.6,668.4z"/>
			<path id="XMLID_116_" class="st0" d="M336.7,675.3c-0.7,0.3-1.3,0.5-1.9,0.5c-2.1,0-3.2-1.3-3.2-3.8v-9.6h-2.6v-1.2h2.6v-3.7
				c0.2-0.1,0.4-0.1,0.6-0.2c0.2-0.1,0.4-0.1,0.6-0.2v4.1h3.8v1.2H333v9.4c0,1,0.2,1.7,0.5,2.1c0.3,0.4,0.8,0.7,1.6,0.7
				c0.5,0,1.1-0.2,1.7-0.5V675.3z"/>
			<path id="XMLID_118_" class="st0" d="M340.2,657.6c-0.3,0-0.5-0.1-0.7-0.3c-0.2-0.2-0.3-0.5-0.3-0.8c0-0.3,0.1-0.6,0.3-0.7
				c0.2-0.2,0.5-0.3,0.7-0.3c0.3,0,0.5,0.1,0.8,0.3c0.2,0.2,0.3,0.4,0.3,0.8c0,0.3-0.1,0.6-0.3,0.8
				C340.7,657.5,340.5,657.6,340.2,657.6z M339.6,675.5v-14.3h1.3v14.3H339.6z"/>
			<path id="XMLID_121_" class="st0" d="M351.2,675.9c-2.1,0-3.7-0.7-4.9-2.1c-1.2-1.4-1.8-3.2-1.8-5.4c0-2.4,0.6-4.2,1.9-5.6
				s2.9-2,5-2c2,0,3.6,0.7,4.8,2c1.2,1.3,1.8,3.2,1.8,5.5c0,2.2-0.6,4-1.8,5.4C354.9,675.2,353.2,675.9,351.2,675.9z M351.2,662.1
				c-1.7,0-3,0.6-4,1.7c-1,1.1-1.5,2.7-1.5,4.7c0,1.9,0.5,3.4,1.5,4.5c1,1.1,2.3,1.7,4,1.7c1.7,0,3-0.6,4-1.7
				c0.9-1.1,1.4-2.7,1.4-4.6c0-2-0.5-3.6-1.4-4.7C354.3,662.6,352.9,662.1,351.2,662.1z"/>
		</g>
		<g id="XMLID_40_" class="st2">
			<path id="XMLID_42_" class="st0" d="M467.1,420.3v6.3h-2v-16.7h4.6c1.8,0,3.2,0.4,4.1,1.3c1,0.9,1.5,2.1,1.5,3.7
				c0,1.6-0.5,2.9-1.6,3.9c-1.1,1-2.6,1.5-4.4,1.5H467.1z M467.1,411.7v6.8h2c1.3,0,2.4-0.3,3.1-0.9s1.1-1.5,1.1-2.6
				c0-2.2-1.3-3.3-3.9-3.3H467.1z"/>
			<path id="XMLID_45_" class="st0" d="M479.2,411.6c-0.3,0-0.6-0.1-0.9-0.3c-0.2-0.2-0.4-0.5-0.4-0.9c0-0.4,0.1-0.7,0.4-0.9
				c0.2-0.2,0.5-0.4,0.9-0.4c0.3,0,0.6,0.1,0.9,0.4c0.2,0.2,0.4,0.5,0.4,0.9c0,0.3-0.1,0.6-0.4,0.9
				C479.9,411.5,479.6,411.6,479.2,411.6z M480.2,426.6h-1.9v-11.9h1.9V426.6z"/>
			<path id="XMLID_48_" class="st0" d="M492.7,414.7l-4,6l3.9,5.9h-2.2l-2.3-3.9c-0.1-0.2-0.3-0.5-0.5-0.9h0c0,0.1-0.2,0.4-0.5,0.9
				l-2.4,3.9h-2.2l4.1-5.8l-3.9-6.1h2.2l2.3,4.1c0.2,0.3,0.3,0.6,0.5,0.9h0l3-5H492.7z"/>
			<path id="XMLID_50_" class="st0" d="M504.5,421.1h-8.4c0,1.3,0.4,2.3,1.1,3.1c0.7,0.7,1.6,1.1,2.8,1.1c1.3,0,2.6-0.4,3.7-1.3v1.8
				c-1,0.8-2.4,1.1-4.2,1.1c-1.7,0-3-0.5-4-1.6c-1-1.1-1.4-2.6-1.4-4.6c0-1.9,0.5-3.4,1.6-4.5c1-1.2,2.4-1.8,3.9-1.8
				s2.8,0.5,3.6,1.5c0.9,1,1.3,2.4,1.3,4.2V421.1z M502.6,419.5c0-1.1-0.3-2-0.8-2.6s-1.3-0.9-2.2-0.9c-0.9,0-1.7,0.3-2.3,1
				s-1,1.5-1.2,2.5H502.6z"/>
			<path id="XMLID_53_" class="st0" d="M509.3,426.6h-1.9v-17.6h1.9V426.6z"/>
			<path id="XMLID_55_" class="st0" d="M512.6,425.9v-2.3c0.3,0.2,0.6,0.4,0.9,0.6c0.4,0.2,0.8,0.3,1.2,0.5s0.8,0.2,1.2,0.3
				c0.4,0.1,0.8,0.1,1.1,0.1c1.2,0,2.1-0.2,2.7-0.7c0.6-0.4,0.9-1.1,0.9-1.9c0-0.5-0.1-0.8-0.3-1.2c-0.2-0.3-0.5-0.6-0.8-0.9
				c-0.3-0.3-0.8-0.5-1.2-0.8s-1-0.5-1.5-0.8c-0.6-0.3-1.1-0.6-1.6-0.9c-0.5-0.3-0.9-0.6-1.3-1s-0.7-0.8-0.9-1.2
				c-0.2-0.5-0.3-1-0.3-1.6c0-0.8,0.2-1.4,0.5-2c0.3-0.6,0.8-1,1.3-1.4c0.5-0.4,1.2-0.6,1.9-0.8c0.7-0.2,1.4-0.3,2.1-0.3
				c1.6,0,2.8,0.2,3.6,0.6v2.2c-1-0.7-2.2-1-3.8-1c-0.4,0-0.9,0-1.3,0.1c-0.4,0.1-0.8,0.2-1.1,0.4c-0.3,0.2-0.6,0.5-0.8,0.8
				c-0.2,0.3-0.3,0.7-0.3,1.2c0,0.4,0.1,0.8,0.2,1.1c0.2,0.3,0.4,0.6,0.7,0.8s0.7,0.5,1.1,0.7c0.4,0.2,1,0.5,1.5,0.8
				c0.6,0.3,1.2,0.6,1.7,0.9c0.5,0.3,1,0.7,1.4,1.1c0.4,0.4,0.7,0.8,1,1.3c0.2,0.5,0.4,1,0.4,1.7c0,0.8-0.2,1.5-0.5,2.1
				c-0.3,0.6-0.8,1-1.3,1.4s-1.2,0.6-1.9,0.8c-0.7,0.2-1.5,0.2-2.3,0.2c-0.3,0-0.6,0-1-0.1c-0.4,0-0.8-0.1-1.2-0.2
				c-0.4-0.1-0.8-0.2-1.1-0.3S512.9,426,512.6,425.9z"/>
			<path id="XMLID_57_" class="st0" d="M535.4,421.1H527c0,1.3,0.4,2.3,1.1,3.1c0.7,0.7,1.6,1.1,2.8,1.1c1.3,0,2.6-0.4,3.7-1.3v1.8
				c-1,0.8-2.4,1.1-4.2,1.1c-1.7,0-3-0.5-4-1.6s-1.4-2.6-1.4-4.6c0-1.9,0.5-3.4,1.6-4.5c1.1-1.2,2.4-1.8,3.9-1.8
				c1.6,0,2.8,0.5,3.6,1.5s1.3,2.4,1.3,4.2V421.1z M533.4,419.5c0-1.1-0.3-2-0.8-2.6s-1.3-0.9-2.2-0.9c-0.9,0-1.7,0.3-2.3,1
				s-1,1.5-1.2,2.5H533.4z"/>
			<path id="XMLID_60_" class="st0" d="M548.2,426.6h-1.9v-6.8c0-2.5-0.9-3.8-2.8-3.8c-1,0-1.7,0.4-2.4,1.1s-0.9,1.6-0.9,2.7v6.8
				h-1.9v-11.9h1.9v2h0c0.9-1.5,2.2-2.3,3.9-2.3c1.3,0,2.3,0.4,3,1.3c0.7,0.8,1,2.1,1,3.6V426.6z"/>
			<path id="XMLID_62_" class="st0" d="M551,426.1v-2c1,0.8,2.2,1.2,3.4,1.2c1.7,0,2.5-0.6,2.5-1.7c0-0.3-0.1-0.6-0.2-0.8
				c-0.1-0.2-0.3-0.4-0.6-0.6c-0.2-0.2-0.5-0.3-0.9-0.5c-0.3-0.1-0.7-0.3-1.1-0.4c-0.5-0.2-1-0.4-1.4-0.6s-0.7-0.5-1-0.7
				s-0.5-0.6-0.6-0.9c-0.1-0.3-0.2-0.7-0.2-1.2c0-0.6,0.1-1.1,0.4-1.5c0.3-0.4,0.6-0.8,1-1.1c0.4-0.3,0.9-0.5,1.5-0.7
				c0.5-0.1,1.1-0.2,1.7-0.2c1,0,2,0.2,2.8,0.5v1.9c-0.9-0.6-1.9-0.9-3-0.9c-0.4,0-0.7,0-1,0.1c-0.3,0.1-0.5,0.2-0.7,0.3
				c-0.2,0.1-0.4,0.3-0.5,0.5c-0.1,0.2-0.2,0.4-0.2,0.7c0,0.3,0.1,0.6,0.2,0.8c0.1,0.2,0.3,0.4,0.5,0.6c0.2,0.2,0.5,0.3,0.8,0.4
				c0.3,0.1,0.7,0.3,1.1,0.4c0.5,0.2,1,0.4,1.4,0.6c0.4,0.2,0.8,0.5,1.1,0.7c0.3,0.3,0.5,0.6,0.7,0.9c0.2,0.3,0.2,0.8,0.2,1.2
				c0,0.6-0.1,1.1-0.4,1.5c-0.3,0.4-0.6,0.8-1,1.1c-0.4,0.3-0.9,0.5-1.5,0.6s-1.2,0.2-1.8,0.2C553,426.8,551.9,426.6,551,426.1z"/>
			<path id="XMLID_64_" class="st0" d="M571.4,421.1H563c0,1.3,0.4,2.3,1.1,3.1c0.7,0.7,1.6,1.1,2.8,1.1c1.3,0,2.6-0.4,3.7-1.3v1.8
				c-1,0.8-2.4,1.1-4.2,1.1c-1.7,0-3-0.5-4-1.6c-1-1.1-1.4-2.6-1.4-4.6c0-1.9,0.5-3.4,1.6-4.5c1-1.2,2.4-1.8,3.9-1.8
				s2.8,0.5,3.6,1.5c0.9,1,1.3,2.4,1.3,4.2V421.1z M569.5,419.5c0-1.1-0.3-2-0.8-2.6s-1.3-0.9-2.2-0.9c-0.9,0-1.7,0.3-2.3,1
				s-1,1.5-1.2,2.5H569.5z"/>
			<path id="XMLID_67_" class="st0" d="M579.4,411H577v6.6h-1.3V411h-2.4v-1.1h6.1V411z M588.6,417.6h-1.3V412h0l-2.5,5.6h-0.7
				l-2.5-5.6h0v5.6h-1.2v-7.7h1.5l2.6,5.8h0l2.7-5.8h1.5V417.6z"/>
			<path id="XMLID_70_" class="st0" d="M609.4,426.6h-1.9v-2h0c-0.9,1.5-2.2,2.3-4.1,2.3c-1.5,0-2.7-0.5-3.6-1.6s-1.3-2.5-1.3-4.4
				c0-2,0.5-3.5,1.5-4.7s2.3-1.8,4-1.8c1.6,0,2.8,0.6,3.6,1.9h0v-7.4h1.9V426.6z M607.5,421.2v-1.8c0-1-0.3-1.8-1-2.4
				c-0.6-0.7-1.4-1-2.4-1c-1.2,0-2.1,0.4-2.7,1.3c-0.7,0.9-1,2-1,3.5c0,1.4,0.3,2.5,1,3.3c0.6,0.8,1.5,1.2,2.6,1.2
				c1.1,0,1.9-0.4,2.6-1.2C607.2,423.3,607.5,422.3,607.5,421.2z"/>
			<path id="XMLID_73_" class="st0" d="M614.3,411.6c-0.3,0-0.6-0.1-0.9-0.3c-0.2-0.2-0.4-0.5-0.4-0.9c0-0.4,0.1-0.7,0.4-0.9
				c0.2-0.2,0.5-0.4,0.9-0.4c0.3,0,0.6,0.1,0.9,0.4c0.2,0.2,0.4,0.5,0.4,0.9c0,0.3-0.1,0.6-0.4,0.9
				C614.9,411.5,614.6,411.6,614.3,411.6z M615.2,426.6h-1.9v-11.9h1.9V426.6z"/>
			<path id="XMLID_76_" class="st0" d="M618.3,426.1v-2c1,0.8,2.2,1.2,3.4,1.2c1.7,0,2.5-0.6,2.5-1.7c0-0.3-0.1-0.6-0.2-0.8
				c-0.1-0.2-0.3-0.4-0.6-0.6c-0.2-0.2-0.5-0.3-0.9-0.5c-0.3-0.1-0.7-0.3-1.1-0.4c-0.5-0.2-1-0.4-1.4-0.6c-0.4-0.2-0.7-0.5-1-0.7
				s-0.5-0.6-0.6-0.9s-0.2-0.7-0.2-1.2c0-0.6,0.1-1.1,0.4-1.5c0.3-0.4,0.6-0.8,1-1.1c0.4-0.3,0.9-0.5,1.5-0.7
				c0.5-0.1,1.1-0.2,1.7-0.2c1,0,2,0.2,2.8,0.5v1.9c-0.9-0.6-1.9-0.9-3-0.9c-0.4,0-0.7,0-1,0.1c-0.3,0.1-0.5,0.2-0.7,0.3
				c-0.2,0.1-0.4,0.3-0.5,0.5c-0.1,0.2-0.2,0.4-0.2,0.7c0,0.3,0.1,0.6,0.2,0.8c0.1,0.2,0.3,0.4,0.5,0.6s0.5,0.3,0.8,0.4
				c0.3,0.1,0.7,0.3,1.1,0.4c0.5,0.2,1,0.4,1.4,0.6c0.4,0.2,0.8,0.5,1.1,0.7s0.5,0.6,0.7,0.9c0.2,0.3,0.2,0.8,0.2,1.2
				c0,0.6-0.1,1.1-0.4,1.5c-0.3,0.4-0.6,0.8-1,1.1s-0.9,0.5-1.5,0.6c-0.6,0.1-1.2,0.2-1.8,0.2C620.3,426.8,619.2,426.6,618.3,426.1z
				"/>
			<path id="XMLID_78_" class="st0" d="M631.1,424.8L631.1,424.8l0,7.2h-1.9v-17.4h1.9v2.1h0c0.9-1.6,2.3-2.4,4.1-2.4
				c1.5,0,2.7,0.5,3.6,1.6c0.9,1.1,1.3,2.5,1.3,4.3c0,2-0.5,3.6-1.5,4.8c-1,1.2-2.3,1.8-4,1.8C633.1,426.8,631.9,426.2,631.1,424.8z
				 M631.1,420v1.7c0,1,0.3,1.8,1,2.5c0.6,0.7,1.5,1,2.4,1c1.2,0,2.1-0.4,2.7-1.3s1-2.1,1-3.7c0-1.3-0.3-2.4-0.9-3.1
				c-0.6-0.8-1.4-1.1-2.5-1.1c-1.1,0-2,0.4-2.7,1.2S631.1,418.9,631.1,420z"/>
			<path id="XMLID_81_" class="st0" d="M645.1,426.6h-1.9v-17.6h1.9V426.6z"/>
			<path id="XMLID_83_" class="st0" d="M657.4,426.6h-1.9v-1.9h0c-0.8,1.4-2.1,2.1-3.7,2.1c-1.2,0-2.1-0.3-2.8-0.9s-1-1.5-1-2.5
				c0-2.2,1.3-3.5,3.9-3.9l3.6-0.5c0-2-0.8-3-2.5-3c-1.4,0-2.7,0.5-3.9,1.5v-2c1.2-0.7,2.5-1.1,4-1.1c2.8,0,4.2,1.5,4.2,4.4V426.6z
				 M655.5,420.5l-2.9,0.4c-0.9,0.1-1.6,0.3-2,0.7c-0.4,0.3-0.7,0.9-0.7,1.7c0,0.6,0.2,1.1,0.6,1.4c0.4,0.4,1,0.6,1.7,0.6
				c0.9,0,1.7-0.3,2.3-1c0.6-0.7,0.9-1.5,0.9-2.5V420.5z"/>
			<path id="XMLID_86_" class="st0" d="M670.5,414.7l-5.5,13.8c-1,2.5-2.3,3.7-4.1,3.7c-0.5,0-0.9-0.1-1.2-0.2v-1.7
				c0.4,0.1,0.8,0.2,1.1,0.2c1,0,1.7-0.6,2.2-1.7l1-2.3l-4.7-11.9h2.1l3.2,9.2c0,0.1,0.1,0.4,0.2,0.9h0.1c0-0.2,0.1-0.5,0.2-0.9
				l3.4-9.2H670.5z"/>
		</g>
		<g id="XMLID_124_">
			<path id="XMLID_125_" class="st0" d="M513.4,675.5v-1.3c0-0.9,0.1-1.7,0.2-2.4c0.1-0.7,0.4-1.4,0.7-1.9c0.3-0.6,0.7-1.2,1.1-1.7
				c0.4-0.5,1-1,1.5-1.6c0.6-0.5,1.3-1.1,2-1.6s1.6-1.1,2.4-1.8c0.9-0.6,1.7-1.2,2.4-1.8c0.7-0.6,1.4-1.3,1.9-2
				c0.6-0.7,1-1.5,1.3-2.3c0.3-0.8,0.5-1.8,0.5-2.9c0-1.9-0.5-3.3-1.6-4.4c-1-1-2.5-1.6-4.4-1.6c-1.3,0-2.5,0.3-3.7,0.8
				c-1.2,0.6-2.3,1.3-3.4,2.3v-2.1c1.1-0.8,2.2-1.5,3.5-2s2.6-0.7,3.9-0.7c1.1,0,2.2,0.2,3.1,0.5c0.9,0.3,1.7,0.8,2.4,1.5
				c0.7,0.6,1.2,1.4,1.5,2.3c0.4,0.9,0.5,1.9,0.5,3c0,1.3-0.2,2.5-0.6,3.5c-0.4,1-0.9,1.9-1.5,2.7c-0.6,0.8-1.4,1.6-2.3,2.3
				c-0.9,0.7-1.8,1.4-2.7,2.1c-1.3,0.9-2.4,1.7-3.2,2.4c-0.9,0.7-1.6,1.4-2.2,2.1c-0.6,0.7-1,1.4-1.2,2.1c-0.2,0.7-0.4,1.5-0.4,2.5
				v0.3h14.1v1.7H513.4z"/>
			<path id="XMLID_127_" class="st0" d="M549.9,647.4v1.9c-1.3-0.6-2.7-1-4.2-1c-1.4,0-2.7,0.3-3.8,1c-1.1,0.7-2.1,1.7-2.9,2.9
				s-1.4,2.7-1.8,4.5c-0.4,1.7-0.6,3.6-0.6,5.7h0.1c1.4-3.2,3.8-4.7,7.1-4.7c1.2,0,2.2,0.2,3.2,0.7c0.9,0.4,1.8,1.1,2.4,1.9
				c0.7,0.8,1.2,1.7,1.6,2.8c0.4,1.1,0.6,2.2,0.6,3.4c0,1.4-0.2,2.6-0.6,3.8c-0.4,1.2-1,2.2-1.7,3c-0.8,0.8-1.6,1.5-2.7,2
				c-1,0.5-2.2,0.7-3.4,0.7c-1.3,0-2.5-0.3-3.5-0.8c-1-0.6-1.9-1.4-2.6-2.5c-0.7-1.1-1.3-2.4-1.6-4.1c-0.4-1.6-0.6-3.5-0.6-5.6
				c0-2.5,0.2-4.7,0.7-6.7s1.2-3.7,2.1-5.2c0.9-1.4,2.1-2.5,3.5-3.3c1.4-0.8,2.9-1.2,4.7-1.2C547.4,646.7,548.7,646.9,549.9,647.4z
				 M543.4,659.5c-0.9,0-1.8,0.2-2.6,0.6c-0.8,0.4-1.5,0.9-2.1,1.5s-1,1.4-1.4,2.2c-0.3,0.8-0.5,1.6-0.5,2.5c0,1.1,0.2,2.1,0.5,3.1
				c0.3,1,0.7,1.8,1.3,2.6c0.6,0.7,1.2,1.3,2,1.8s1.7,0.7,2.6,0.7c0.9,0,1.8-0.2,2.5-0.6c0.8-0.4,1.5-0.9,2-1.6
				c0.6-0.7,1-1.5,1.3-2.4c0.3-0.9,0.5-1.9,0.5-3c0-1.1-0.1-2.1-0.4-3c-0.3-0.9-0.7-1.7-1.2-2.4s-1.2-1.2-2-1.5
				C545.2,659.6,544.4,659.5,543.4,659.5z"/>
			<path id="XMLID_142_" class="st0" d="M559,675.5c0.4-2.4,1-4.8,1.7-7.1c0.7-2.3,1.5-4.5,2.4-6.7c0.9-2.2,1.9-4.3,3-6.5
				s2.2-4.3,3.5-6.5h-15v-1.7H572v0.7c-1.3,2.4-2.6,4.8-3.7,7c-1.2,2.3-2.2,4.5-3.2,6.7c-0.9,2.2-1.8,4.5-2.5,6.8
				c-0.7,2.3-1.2,4.7-1.6,7.1H559z"/>
			<path id="XMLID_144_" class="st0" d="M588.5,667.5v8h-1.4v-20h4.8c2.1,0,3.6,0.5,4.7,1.4c1.1,1,1.6,2.3,1.6,4.2
				c0,1.9-0.6,3.4-1.8,4.6c-1.2,1.2-2.9,1.8-5.1,1.8H588.5z M588.5,656.8v9.4h2.8c1.8,0,3.2-0.4,4.1-1.3c0.9-0.9,1.4-2.1,1.4-3.6
				c0-3-1.7-4.5-5.2-4.5H588.5z"/>
			<path id="XMLID_147_" class="st0" d="M604,667.5v8h-1.4v-20h4.8c2.1,0,3.6,0.5,4.7,1.4c1.1,1,1.6,2.3,1.6,4.2
				c0,1.9-0.6,3.4-1.8,4.6s-2.9,1.8-5.1,1.8H604z M604,656.8v9.4h2.8c1.8,0,3.2-0.4,4.1-1.3c0.9-0.9,1.4-2.1,1.4-3.6
				c0-3-1.7-4.5-5.2-4.5H604z"/>
			<path id="XMLID_150_" class="st0" d="M618.2,675.5v-20h1.4v20H618.2z"/>
		</g>
		<g id="XMLID_152_">
			<path id="XMLID_153_" class="st0" d="M808.6,647.4v1.9c-1.3-0.6-2.7-1-4.2-1c-1.4,0-2.7,0.3-3.8,1c-1.1,0.7-2.1,1.7-2.9,2.9
				c-0.8,1.3-1.4,2.7-1.8,4.5c-0.4,1.7-0.6,3.6-0.6,5.7h0.1c1.4-3.2,3.8-4.7,7.1-4.7c1.2,0,2.2,0.2,3.2,0.7c0.9,0.4,1.8,1.1,2.4,1.9
				c0.7,0.8,1.2,1.7,1.6,2.8c0.4,1.1,0.6,2.2,0.6,3.4c0,1.4-0.2,2.6-0.6,3.8s-1,2.2-1.8,3c-0.8,0.8-1.6,1.5-2.7,2
				c-1,0.5-2.2,0.7-3.4,0.7c-1.3,0-2.5-0.3-3.5-0.8c-1-0.6-1.9-1.4-2.6-2.5c-0.7-1.1-1.3-2.4-1.6-4.1c-0.4-1.6-0.6-3.5-0.6-5.6
				c0-2.5,0.2-4.7,0.7-6.7s1.2-3.7,2.1-5.2c0.9-1.4,2.1-2.5,3.5-3.3s2.9-1.2,4.7-1.2C806,646.7,807.4,646.9,808.6,647.4z M802,659.4
				c-0.9,0-1.8,0.2-2.6,0.6c-0.8,0.4-1.5,0.9-2.1,1.5c-0.6,0.6-1,1.4-1.4,2.2c-0.3,0.8-0.5,1.6-0.5,2.5c0,1.1,0.2,2.1,0.5,3.1
				c0.3,1,0.7,1.8,1.3,2.6c0.6,0.7,1.2,1.3,2,1.8c0.8,0.4,1.7,0.7,2.6,0.7c0.9,0,1.8-0.2,2.5-0.6s1.5-0.9,2-1.6
				c0.6-0.7,1-1.5,1.3-2.4c0.3-0.9,0.5-1.9,0.5-3c0-1.1-0.1-2.1-0.4-3c-0.3-0.9-0.7-1.7-1.2-2.4c-0.5-0.7-1.2-1.2-2-1.5
				C803.9,659.6,803,659.4,802,659.4z"/>
			<path id="XMLID_156_" class="st0" d="M843.1,675.5v-8.6c0-1.8-0.3-3.1-0.8-3.8s-1.5-1.1-2.7-1.1c-1.1,0-2.1,0.5-2.9,1.5
				c-0.8,1-1.2,2.2-1.2,3.6v8.4h-1.3v-8.7c0-3.2-1.2-4.8-3.6-4.8c-1.2,0-2.1,0.5-2.9,1.5c-0.8,1-1.2,2.2-1.2,3.8v8.2h-1.3v-14.3h1.3
				v2.4h0.1c1-1.8,2.5-2.7,4.4-2.7c1,0,1.9,0.3,2.7,0.9c0.7,0.6,1.2,1.4,1.5,2.4c0.4-1,1.1-1.8,1.9-2.4c0.8-0.6,1.7-0.9,2.7-0.9
				c3.1,0,4.7,1.9,4.7,5.8v8.8H843.1z"/>
			<path id="XMLID_158_" class="st0" d="M849.3,657.6c-0.3,0-0.5-0.1-0.7-0.3c-0.2-0.2-0.3-0.5-0.3-0.8c0-0.3,0.1-0.6,0.3-0.7
				c0.2-0.2,0.5-0.3,0.7-0.3c0.3,0,0.5,0.1,0.8,0.3c0.2,0.2,0.3,0.4,0.3,0.8c0,0.3-0.1,0.6-0.3,0.8
				C849.9,657.5,849.6,657.6,849.3,657.6z M848.7,675.5v-14.3h1.3v14.3H848.7z"/>
			<path id="XMLID_161_" class="st0" d="M854.6,675.5v-21.2h1.3v21.2H854.6z"/>
			<path id="XMLID_163_" class="st0" d="M860.4,675.5v-21.2h1.3v21.2H860.4z"/>
			<path id="XMLID_165_" class="st0" d="M866.9,657.6c-0.3,0-0.5-0.1-0.7-0.3c-0.2-0.2-0.3-0.5-0.3-0.8c0-0.3,0.1-0.6,0.3-0.7
				c0.2-0.2,0.5-0.3,0.7-0.3c0.3,0,0.5,0.1,0.8,0.3c0.2,0.2,0.3,0.4,0.3,0.8c0,0.3-0.1,0.6-0.3,0.8
				C867.5,657.5,867.2,657.6,866.9,657.6z M866.3,675.5v-14.3h1.3v14.3H866.3z"/>
			<path id="XMLID_168_" class="st0" d="M877.9,675.9c-2.1,0-3.7-0.7-4.9-2.1c-1.2-1.4-1.8-3.2-1.8-5.4c0-2.4,0.6-4.2,1.9-5.6
				s2.9-2,5-2c2,0,3.6,0.7,4.8,2c1.2,1.3,1.8,3.2,1.8,5.5c0,2.2-0.6,4-1.8,5.4S880,675.9,877.9,675.9z M878,662.1
				c-1.7,0-3,0.6-4,1.7c-1,1.1-1.5,2.7-1.5,4.7c0,1.9,0.5,3.4,1.5,4.5c1,1.1,2.3,1.7,4,1.7c1.7,0,3-0.6,4-1.7
				c0.9-1.1,1.4-2.7,1.4-4.6c0-2-0.5-3.6-1.4-4.7C881,662.6,879.7,662.1,878,662.1z"/>
			<path id="XMLID_171_" class="st0" d="M897.9,675.5v-8.3c0-3.4-1.2-5.1-3.7-5.1c-1.4,0-2.5,0.5-3.4,1.5c-0.9,1-1.3,2.3-1.3,3.7
				v8.2h-1.3v-14.3h1.3v2.6h0.1c1-2,2.7-2.9,4.9-2.9c1.5,0,2.7,0.5,3.5,1.5s1.2,2.5,1.2,4.4v8.7H897.9z"/>
			<path id="XMLID_173_" class="st0" d="M912.7,673L912.7,673l-0.1,9.1h-1.3v-20.9h1.3v2.9h0.1c0.5-1.1,1.2-1.9,2.2-2.4
				s2-0.9,3.1-0.9c1.8,0,3.2,0.6,4.2,1.9c1,1.3,1.5,3,1.5,5.1c0,2.4-0.6,4.3-1.8,5.8s-2.7,2.2-4.6,2.2
				C915.3,675.9,913.7,674.9,912.7,673z M912.6,667.7v1.8c0,1.4,0.5,2.7,1.4,3.7c0.9,1,2.1,1.5,3.6,1.5c1.5,0,2.6-0.6,3.6-1.9
				c0.9-1.3,1.4-2.9,1.4-4.9c0-1.8-0.4-3.2-1.3-4.3c-0.8-1.1-2-1.6-3.3-1.6c-1.7,0-3,0.6-3.9,1.7
				C913.1,664.8,912.6,666.2,912.6,667.7z"/>
			<path id="XMLID_176_" class="st0" d="M927.9,657.6c-0.3,0-0.5-0.1-0.7-0.3c-0.2-0.2-0.3-0.5-0.3-0.8c0-0.3,0.1-0.6,0.3-0.7
				s0.5-0.3,0.7-0.3c0.3,0,0.5,0.1,0.8,0.3c0.2,0.2,0.3,0.4,0.3,0.8c0,0.3-0.1,0.6-0.3,0.8C928.5,657.5,928.2,657.6,927.9,657.6z
				 M927.3,675.5v-14.3h1.3v14.3H927.3z"/>
			<path id="XMLID_179_" class="st0" d="M937.6,668.5l4.7,7h-1.6l-3.8-6h-0.1l-0.5,0.8c-0.1,0.1-0.1,0.2-0.2,0.4l-3.2,4.9h-1.6
				l4.8-7l-4.7-7.3h1.5l3.2,5.1c0.4,0.7,0.7,1.1,0.7,1.2h0.1l0.7-1.2l3.3-5.2h1.5L937.6,668.5z"/>
			<path id="XMLID_181_" class="st0" d="M945.5,668.4c0,2,0.5,3.5,1.4,4.6s2.2,1.7,3.7,1.7c1.6,0,3.2-0.6,4.7-1.8v1.4
				c-1.5,1.1-3.1,1.6-5,1.6c-1.8,0-3.3-0.7-4.5-2c-1.1-1.3-1.7-3.2-1.7-5.6c0-2.1,0.6-3.8,1.8-5.3c1.2-1.4,2.7-2.1,4.6-2.1
				c1.8,0,3.1,0.6,4.1,1.9c0.9,1.2,1.4,3,1.4,5.1v0.6H945.5z M954.8,667.3c-0.1-1.6-0.5-2.9-1.2-3.8c-0.7-0.9-1.7-1.4-3-1.4
				c-1.3,0-2.4,0.4-3.3,1.3c-0.9,0.9-1.4,2.2-1.6,3.9H954.8z"/>
			<path id="XMLID_184_" class="st0" d="M959.6,675.5v-21.2h1.3v21.2H959.6z"/>
			<path id="XMLID_186_" class="st0" d="M964.8,674.9v-1.5c0.5,0.4,1.1,0.7,1.8,1c0.7,0.2,1.3,0.4,1.8,0.4c2.2,0,3.4-0.9,3.4-2.7
				c0-0.6-0.2-1.2-0.7-1.6c-0.5-0.4-1.3-0.9-2.4-1.4c-1.4-0.6-2.3-1.2-2.9-1.8c-0.6-0.6-0.8-1.4-0.8-2.3c0-1.2,0.4-2.1,1.3-2.8
				c0.9-0.7,2-1.1,3.3-1.1c1.2,0,2.3,0.3,3.2,0.8v1.5c-1.1-0.7-2.2-1-3.3-1c-0.9,0-1.7,0.2-2.3,0.7c-0.6,0.5-0.9,1.1-0.9,1.9
				c0,0.7,0.2,1.2,0.5,1.7c0.4,0.4,1.2,0.9,2.4,1.5c1.5,0.7,2.5,1.3,3.1,1.9c0.6,0.6,0.8,1.3,0.8,2.3c0,1.1-0.4,2.1-1.3,2.8
				c-0.9,0.7-2,1.1-3.5,1.1C966.8,675.9,965.7,675.5,964.8,674.9z"/>
		</g>
		<path id="XMLID_890_" class="st3" d="M1096.3,786.5H24.5c-13.2,0-24-10.8-24-24v-738c0-13.2,10.8-24,24-24h1071.8
			c13.2,0,24,10.8,24,24v738C1120.3,775.7,1109.5,786.5,1096.3,786.5z"/>
		<rect id="XMLID_889_" x="48.9" y="49.5" class="st3" width="1024.2" height="682.8"/>
	</g>
</g>
</svg>
