<?xml version="1.0" encoding="utf-8"?>
<!-- Generator: Adobe Illustrator 19.0.0, SVG Export Plug-In . SVG Version: 6.00 Build 0)  -->
<svg version="1.1" id="logo" xmlns="http://www.w3.org/2000/svg" xmlns:xlink="http://www.w3.org/1999/xlink" x="0px" y="0px"
	 viewBox="0 0 89 88" style="enable-background:new 0 0 89 88;" xml:space="preserve">
<style type="text/css">
	.st0{fill:#FFFFFF;}
</style>
<g>
	<path class="st0" d="M87,35h-3v18h3c1,0,2-1,2-2V37C89,36,88,35,87,35z"/>
	<path class="st0" d="M87,55h-3v18h3c1,0,2-1,2-2V57C89,56,88,55,87,55z"/>
	<path class="st0" d="M87,15h-5v-3.1c0-1-1.3-1.9-1.3-1.9H54v10h20v4H54v5h20v4H54v5h20v4H54v5h20v4H54v5h20v4H54v5h20v4H54v9h26
		c1,0,2-0.9,2-1.9V33h5c1,0,2-1,2-2V17C89,15.9,88,15,87,15z"/>
</g>
<path class="st0" d="M0,8.8v70.4L52,88V0L0,8.8z M39,61l-6.7-0.4L20.8,39.4c-0.2-0.3-0.3-0.6-0.4-0.8c-0.1-0.3-0.3-0.5-0.4-0.7
	c-0.1-0.2-0.2-0.4-0.3-0.6c-0.1-0.2-0.5-0.4-0.5-0.5v0c0,0.3-0.2,0.6-0.2,1c0,0.4,0,0.8,0,1.2c0,0.4,0,0.5,0,1c0,0.5,0,1.9,0,2.5
	v17.5l-5-0.3V27.5l6.4-0.3l11,20c0.1,0.2,0.2,0.4,0.3,0.6c0.1,0.2,0.2,0.4,0.3,0.7c0.1,0.2,0.3,0.5,0.4,0.7c0.1,0.3,0.3,0.5,0.4,0.8
	l0.1,0c0-0.2-0.1-0.5-0.1-0.8c0-0.3-0.1-0.3-0.1-0.7c0-0.4,0-0.8,0-1.2c0-0.5,0-1.9,0-2.5V26.5l6.3-0.4V61z"/>
</svg>
