<?xml version="1.0" encoding="utf-8"?>
<!-- Generator: Adobe Illustrator 19.0.0, SVG Export Plug-In . SVG Version: 6.00 Build 0)  -->
<svg version="1.1" id="Layer_4" xmlns="http://www.w3.org/2000/svg" xmlns:xlink="http://www.w3.org/1999/xlink" x="0px" y="0px"
	 viewBox="0 0 30 30.4" style="enable-background:new 0 0 30 30.4;" xml:space="preserve">
<style type="text/css">
	.st0{fill:#FFFFFF;}
</style>
<path class="st0" d="M29,4.2H19v4.6c0.6-0.3,1.3-0.6,2-0.6v4h4c0,2.2-1.8,4-4,4c-0.7,0-1.4-0.2-2-0.6v3.6h8v1h-8v2h8v1h-8v3h10
	c0.4,0,1-0.6,1-1v-20C30,4.8,29.4,4.2,29,4.2z M22,11.2v-4c2.2,0,4,1.8,4,4H22z"/>
<g>
	<path class="st0" d="M0,4.1v22.1l18,4.1V0L0,4.1z M12.9,13.7c0,0.3-0.1,0.6-0.2,0.8c-0.1,0.3-0.2,0.5-0.4,0.7
		c-0.1,0.2-0.3,0.4-0.5,0.6c-0.2,0.2-0.4,0.4-0.7,0.5c-0.2,0.2-0.5,0.3-0.8,0.4C10,16.9,9.7,17,9.4,17.1c-0.3,0-0.6,0.1-1,0.1
		l-1.2,0.1v4.3L5,21.3V9.1l3.7-0.2c0.7,0,1.3,0,1.8,0.2c0.5,0.1,1,0.4,1.3,0.7c0.4,0.3,0.6,0.7,0.8,1.3c0.2,0.5,0.3,1.1,0.3,1.8
		C13,13.1,12.9,13.4,12.9,13.7z"/>
	<path class="st0" d="M9.7,11.5c-0.2-0.2-0.4-0.3-0.6-0.3c-0.2-0.1-0.5-0.1-0.9-0.1l-0.9,0.1V15l0.9,0c0.3,0,0.6,0,0.9-0.1
		c0.2-0.1,0.5-0.2,0.6-0.4c0.2-0.2,0.3-0.4,0.4-0.6c0.1-0.3,0.1-0.5,0.1-0.9c0-0.3,0-0.6-0.1-0.9C10,11.9,9.9,11.7,9.7,11.5z"/>
</g>
</svg>
