<?xml version="1.0" encoding="utf-8"?>
<!-- Generator: Adobe Illustrator 19.0.0, SVG Export Plug-In . SVG Version: 6.00 Build 0)  -->
<svg version="1.1" id="Layer_1" xmlns="http://www.w3.org/2000/svg" xmlns:xlink="http://www.w3.org/1999/xlink" x="0px" y="0px"
	 viewBox="0 0 72 72.1" style="enable-background:new 0 0 72 72.1;" xml:space="preserve">
<style type="text/css">
	.st0{fill:#FFFFFF;}
</style>
<g id="XMLID_14_">
	<path id="XMLID_15_" class="st0" d="M35.8,55.4c-2.4,0-4.7-0.3-7-0.9c-2.3-0.6-4.5-1.5-6.6-2.6c-2.1-1.1-4-2.5-5.7-4.1
		s-3.2-3.4-4.5-5.5c-0.4-0.6-0.6-1.3-0.6-2c0-0.5,0.1-1,0.3-1.4c0.2-0.4,0.5-0.8,0.8-1.2c0.3-0.3,0.7-0.6,1.2-0.8
		c0.4-0.2,0.9-0.3,1.4-0.3c0.7,0,1.2,0.2,1.8,0.5c0.5,0.3,1,0.7,1.3,1.3c2.2,3.2,4.8,5.6,7.8,7.3c3,1.7,6.4,2.5,10.4,2.5
		c3.7,0,7.1-0.9,10.1-2.6c3-1.7,5.5-4.1,7.6-7.2c0.4-0.5,0.8-0.9,1.2-1.2c0.5-0.3,1-0.5,1.7-0.5c1.1,0,1.9,0.3,2.7,1
		c0.7,0.7,1.1,1.5,1.1,2.6c0,0.4,0,0.7-0.1,1c-0.1,0.3-0.2,0.6-0.4,0.9c-0.6,1-1.2,2-2,2.9c-0.8,0.9-1.6,1.7-2.4,2.6
		c-2.7,2.6-5.7,4.5-9.1,5.8C43.1,54.7,39.5,55.4,35.8,55.4z M28.7,20.4c0,0.8-0.2,1.5-0.5,2.2c-0.3,0.7-0.7,1.3-1.2,1.8
		c-0.5,0.5-1.1,0.9-1.8,1.2c-0.7,0.3-1.4,0.5-2.2,0.5c-0.8,0-1.5-0.2-2.2-0.5c-0.7-0.3-1.3-0.7-1.8-1.2c-0.5-0.5-0.9-1.1-1.2-1.8
		c-0.3-0.7-0.5-1.4-0.5-2.2c0-0.8,0.1-1.5,0.4-2.3c0.3-0.7,0.7-1.3,1.2-1.8c0.5-0.5,1.1-0.9,1.8-1.2c0.7-0.3,1.4-0.5,2.2-0.5
		c0.8,0,1.5,0.2,2.2,0.5c0.7,0.3,1.3,0.7,1.8,1.2s0.9,1.1,1.2,1.8C28.5,18.8,28.7,19.6,28.7,20.4z M43.4,20.4c0-0.8,0.2-1.5,0.5-2.3
		c0.3-0.7,0.7-1.3,1.2-1.8c0.5-0.5,1.1-0.9,1.8-1.2c0.7-0.3,1.5-0.5,2.3-0.5c0.8,0,1.5,0.2,2.2,0.5c0.7,0.3,1.3,0.7,1.8,1.2
		c0.5,0.5,0.9,1.1,1.2,1.8c0.3,0.7,0.4,1.4,0.4,2.2c0,0.8-0.2,1.5-0.5,2.2c-0.3,0.7-0.7,1.3-1.2,1.8c-0.5,0.5-1.1,0.9-1.8,1.2
		c-0.7,0.3-1.4,0.5-2.2,0.5c-0.8,0-1.5-0.2-2.2-0.5c-0.7-0.3-1.3-0.7-1.8-1.2c-0.5-0.5-0.9-1.1-1.2-1.8
		C43.6,21.9,43.4,21.2,43.4,20.4z"/>
</g>
</svg>
