<?xml version="1.0" encoding="utf-8"?>
<!-- Generator: Adobe Illustrator 19.0.0, SVG Export Plug-In . SVG Version: 6.00 Build 0)  -->
<svg version="1.1" id="Layer_4" xmlns="http://www.w3.org/2000/svg" xmlns:xlink="http://www.w3.org/1999/xlink" x="0px" y="0px"
	 viewBox="0 0 30 30.4" style="enable-background:new 0 0 30 30.4;" xml:space="preserve">
<style type="text/css">
	.st0{fill:#FFFFFF;}
</style>
<path class="st0" d="M28.9,3.2H19v2h3v3h-3v1h3v3h-3v1h3v3h-3v1h3v3h-3v1h3v3h-3v2h9.9c0.3,0,1.1-0.5,1.1-0.9V4.1
	C30,3.7,29.3,3.2,28.9,3.2z M28,24.2h-5v-3h5V24.2z M28,20.2h-5v-3h5V20.2z M28,16.2h-5v-3h5V16.2z M28,12.2h-5v-3h5V12.2z M28,8.2
	h-5v-3h5V8.2z"/>
<path class="st0" d="M0,4.1v22.1l18,4.1V0L0,4.1z M10.6,21.4l-1.8-4.1c0,0,0-0.1,0-0.1c0-0.1,0-0.1-0.1-0.2c0-0.1,0-0.1-0.1-0.2
	c0-0.1,0-0.2-0.1-0.3l0,0c0,0,0,0.1,0,0.2c0,0.1,0,0.1,0,0.2c0,0.1,0,0.1-0.1,0.2c0,0.1-0.1,0.2-0.1,0.3l-1.7,3.8L3.9,21L7,15.2
	L4.2,9.4l2.7-0.2l1.4,3.5c0,0.1,0.1,0.1,0.1,0.2c0,0.1,0.1,0.2,0.1,0.2c0,0.1,0.1,0.2,0.1,0.3c0,0.1,0,0.2,0.1,0.3l0,0
	c0-0.1,0-0.1,0.1-0.2c0-0.1,0-0.2,0.1-0.2c0-0.1,0.1-0.2,0.1-0.3c0-0.1,0.1-0.2,0.1-0.3L10.6,9l2.8-0.2l-3.3,6.3l3.4,6.4L10.6,21.4z
	"/>
</svg>
